<?xml version="1.0" encoding="UTF-8"?>
<svg version="1.1" xmlns="http://www.w3.org/2000/svg" width="360" height="360">
<path d="M0 0 C118.8 0 237.6 0 360 0 C360 118.8 360 237.6 360 360 C241.2 360 122.4 360 0 360 C0 241.2 0 122.4 0 0 Z " fill="#FCFCFC" transform="translate(0,0)"/>
<path d="M0 0 C8.80473218 5.21534659 15.22731814 10.74484684 17.85591125 20.82841492 C19.33339428 27.01330672 19.6344826 32.80065878 19.54760742 39.13598633 C19.54361938 40.80423965 19.54361938 40.80423965 19.53955078 42.50619507 C19.53264591 44.89764298 19.51930155 47.28907957 19.5000515 49.68045998 C19.47222938 53.46827229 19.46752551 57.2554731 19.46955872 61.04338074 C19.47307713 71.80447107 19.45028439 82.5650872 19.3762207 93.32592773 C19.33105312 99.92758085 19.3279486 106.52849083 19.34780312 113.13031578 C19.34770563 115.63934414 19.33284866 118.14841763 19.30284691 120.65726662 C19.26201974 124.16164035 19.27041174 127.66275133 19.28979492 131.16723633 C19.26567032 132.19855179 19.24154572 133.22986725 19.21669006 134.29243469 C19.28170937 138.43230144 19.32987409 141.20896922 22.00533485 144.4910183 C24.00980564 146.2523255 26.06038345 147.79620654 28.2421875 149.328125 C38.75949053 159.79231034 43.09916347 173.75135618 43.5546875 188.328125 C43.31497433 204.08381782 37.16933988 218.5072586 26.3046875 229.828125 C11.83573792 243.24319054 -4.27909669 247.07056131 -23.51416016 246.45117188 C-35.63042143 245.78668921 -49.61565415 238.35486352 -57.7578125 229.328125 C-62.5418451 223.41414946 -66.78305343 217.34624591 -69.7578125 210.328125 C-70.04398438 209.66039062 -70.33015625 208.99265625 -70.625 208.3046875 C-75.65923154 195.79102625 -75.42329559 179.95133775 -70.7578125 167.328125 C-66.51098828 157.73638805 -60.34155272 148.51574726 -51.7578125 142.328125 C-51.0978125 142.328125 -50.4378125 142.328125 -49.7578125 142.328125 C-49.76149967 141.72404879 -49.76518684 141.11997257 -49.76898575 140.49759102 C-49.8575171 125.76486559 -49.92360953 111.03215592 -49.96506119 96.29922676 C-49.98564236 89.17432191 -50.01367715 82.04959518 -50.05957031 74.92480469 C-50.09957511 68.71117905 -50.12527759 62.49768247 -50.13416648 56.28393161 C-50.13935839 52.99701776 -50.15360002 49.71055674 -50.18073273 46.42374039 C-50.20988788 42.74467589 -50.21376326 39.06636898 -50.21191406 35.38720703 C-50.22629517 34.31042191 -50.24067627 33.23363678 -50.25549316 32.1242218 C-50.19620859 21.18051655 -46.78473689 13.44049903 -39.2734375 5.53125 C-28.85115473 -3.59633926 -12.59712117 -6.02286601 0 0 Z " fill="#F4F3F3" transform="translate(201.7578125,64.671875)"/>
<path d="M0 0 C8.80473218 5.21534659 15.22731814 10.74484684 17.85591125 20.82841492 C19.33339428 27.01330672 19.6344826 32.80065878 19.54760742 39.13598633 C19.54361938 40.80423965 19.54361938 40.80423965 19.53955078 42.50619507 C19.53264591 44.89764298 19.51930155 47.28907957 19.5000515 49.68045998 C19.47222938 53.46827229 19.46752551 57.2554731 19.46955872 61.04338074 C19.47307713 71.80447107 19.45028439 82.5650872 19.3762207 93.32592773 C19.33105312 99.92758085 19.3279486 106.52849083 19.34780312 113.13031578 C19.34770563 115.63934414 19.33284866 118.14841763 19.30284691 120.65726662 C19.26201974 124.16164035 19.27041174 127.66275133 19.28979492 131.16723633 C19.26567032 132.19855179 19.24154572 133.22986725 19.21669006 134.29243469 C19.28170937 138.43230144 19.32987409 141.20896922 22.00533485 144.4910183 C24.00980564 146.2523255 26.06038345 147.79620654 28.2421875 149.328125 C38.75949053 159.79231034 43.09916347 173.75135618 43.5546875 188.328125 C43.31497433 204.08381782 37.16933988 218.5072586 26.3046875 229.828125 C11.83573792 243.24319054 -4.27909669 247.07056131 -23.51416016 246.45117188 C-35.63042143 245.78668921 -49.61565415 238.35486352 -57.7578125 229.328125 C-62.5418451 223.41414946 -66.78305343 217.34624591 -69.7578125 210.328125 C-70.04398438 209.66039062 -70.33015625 208.99265625 -70.625 208.3046875 C-75.65923154 195.79102625 -75.42329559 179.95133775 -70.7578125 167.328125 C-66.51098828 157.73638805 -60.34155272 148.51574726 -51.7578125 142.328125 C-51.0978125 142.328125 -50.4378125 142.328125 -49.7578125 142.328125 C-49.76149967 141.72404879 -49.76518684 141.11997257 -49.76898575 140.49759102 C-49.8575171 125.76486559 -49.92360953 111.03215592 -49.96506119 96.29922676 C-49.98564236 89.17432191 -50.01367715 82.04959518 -50.05957031 74.92480469 C-50.09957511 68.71117905 -50.12527759 62.49768247 -50.13416648 56.28393161 C-50.13935839 52.99701776 -50.15360002 49.71055674 -50.18073273 46.42374039 C-50.20988788 42.74467589 -50.21376326 39.06636898 -50.21191406 35.38720703 C-50.22629517 34.31042191 -50.24067627 33.23363678 -50.25549316 32.1242218 C-50.19620859 21.18051655 -46.78473689 13.44049903 -39.2734375 5.53125 C-28.85115473 -3.59633926 -12.59712117 -6.02286601 0 0 Z M-36.7578125 15.328125 C-39.88734377 19.62428628 -40.96503237 23.28210587 -40.85546875 28.59375 C-40.84136963 29.48352539 -40.82727051 30.37330078 -40.81274414 31.29003906 C-40.7946167 31.96260742 -40.77648926 32.63517578 -40.7578125 33.328125 C-40.12689697 33.35318115 -39.49598145 33.3782373 -38.84594727 33.40405273 C-36.00384425 33.51966637 -33.16210167 33.64254816 -30.3203125 33.765625 C-28.83047852 33.82459961 -28.83047852 33.82459961 -27.31054688 33.88476562 C-26.36630859 33.92666016 -25.42207031 33.96855469 -24.44921875 34.01171875 C-23.57467041 34.04837646 -22.70012207 34.08503418 -21.79907227 34.12280273 C-19.7578125 34.328125 -19.7578125 34.328125 -18.7578125 35.328125 C-18.6328125 37.828125 -18.6328125 37.828125 -18.7578125 40.328125 C-20.40860692 41.97891942 -22.39517429 41.55361947 -24.66796875 41.64453125 C-25.65732422 41.68642578 -26.64667969 41.72832031 -27.66601562 41.77148438 C-28.70693359 41.81080078 -29.74785156 41.85011719 -30.8203125 41.890625 C-31.86509766 41.93380859 -32.90988281 41.97699219 -33.98632812 42.02148438 C-36.57665222 42.12793605 -39.16721425 42.22856808 -41.7578125 42.328125 C-41.7578125 45.958125 -41.7578125 49.588125 -41.7578125 53.328125 C-36.4778125 53.658125 -31.1978125 53.988125 -25.7578125 54.328125 C-25.2628125 56.803125 -25.2628125 56.803125 -24.7578125 59.328125 C-26.81703652 61.38734902 -30.97489374 60.74240079 -33.8203125 60.890625 C-34.95823242 60.95540039 -34.95823242 60.95540039 -36.11914062 61.02148438 C-37.99846688 61.12786133 -39.87811494 61.22852434 -41.7578125 61.328125 C-41.7578125 64.958125 -41.7578125 68.588125 -41.7578125 72.328125 C-36.4778125 72.658125 -31.1978125 72.988125 -25.7578125 73.328125 C-25.4278125 74.978125 -25.0978125 76.628125 -24.7578125 78.328125 C-26.81703652 80.38734902 -30.97489374 79.74240079 -33.8203125 79.890625 C-34.95823242 79.95540039 -34.95823242 79.95540039 -36.11914062 80.02148438 C-37.99846688 80.12786133 -39.87811494 80.22852434 -41.7578125 80.328125 C-41.7578125 83.958125 -41.7578125 87.588125 -41.7578125 91.328125 C-36.4778125 91.328125 -31.1978125 91.328125 -25.7578125 91.328125 C-25.7578125 94.298125 -25.7578125 97.268125 -25.7578125 100.328125 C-31.0378125 100.328125 -36.3178125 100.328125 -41.7578125 100.328125 C-41.7578125 103.958125 -41.7578125 107.588125 -41.7578125 111.328125 C-36.4778125 111.658125 -31.1978125 111.988125 -25.7578125 112.328125 C-25.7578125 114.308125 -25.7578125 116.288125 -25.7578125 118.328125 C-33.6778125 118.823125 -33.6778125 118.823125 -41.7578125 119.328125 C-41.7578125 122.958125 -41.7578125 126.588125 -41.7578125 130.328125 C-40.18128906 130.38871094 -38.60476562 130.44929688 -36.98046875 130.51171875 C-34.92707307 130.59610487 -32.87368819 130.68075383 -30.8203125 130.765625 C-29.77939453 130.80494141 -28.73847656 130.84425781 -27.66601562 130.88476562 C-26.67666016 130.92666016 -25.68730469 130.96855469 -24.66796875 131.01171875 C-23.75152588 131.04837646 -22.83508301 131.08503418 -21.89086914 131.12280273 C-19.7578125 131.328125 -19.7578125 131.328125 -18.7578125 132.328125 C-18.6328125 134.828125 -18.6328125 134.828125 -18.7578125 137.328125 C-20.37561407 138.94592657 -22.21416768 138.55084647 -24.44921875 138.64453125 C-25.86557617 138.70737305 -25.86557617 138.70737305 -27.31054688 138.77148438 C-28.30376953 138.81080078 -29.29699219 138.85011719 -30.3203125 138.890625 C-31.31740234 138.93380859 -32.31449219 138.97699219 -33.34179688 139.02148438 C-35.813654 139.12792798 -38.2856156 139.22994428 -40.7578125 139.328125 C-40.86867188 140.441875 -40.97953125 141.555625 -41.09375 142.703125 C-41.7578125 146.328125 -41.7578125 146.328125 -44.3828125 148.328125 C-46.0534375 149.318125 -46.0534375 149.318125 -47.7578125 150.328125 C-50.23776258 152.52040087 -52.63848282 154.7824213 -54.7578125 157.328125 C-54.7578125 157.988125 -54.7578125 158.648125 -54.7578125 159.328125 C-55.4178125 159.328125 -56.0778125 159.328125 -56.7578125 159.328125 C-57.72389573 161.17826553 -58.6803032 163.03345973 -59.6328125 164.890625 C-60.16648438 165.92316406 -60.70015625 166.95570313 -61.25 168.01953125 C-64.23419205 174.56774542 -65.14710531 180.41709884 -65.1328125 187.515625 C-65.13120117 188.35134033 -65.12958984 189.18705566 -65.12792969 190.0480957 C-64.92811933 200.19826615 -61.51961136 208.48478426 -56.7578125 217.328125 C-56.0978125 217.328125 -55.4378125 217.328125 -54.7578125 217.328125 C-54.35175781 218.21564453 -54.35175781 218.21564453 -53.9375 219.12109375 C-49.31375608 227.7714756 -39.48027712 233.39790154 -30.48046875 236.43359375 C-15.75254346 240.16373416 -2.69189424 238.43685287 10.6796875 231.015625 C22.51063864 223.61538863 30.41004338 212.58117765 33.828125 199 C36.08710734 184.42317057 33.55599531 171.12014885 25.24609375 158.84375 C21.26494522 153.8459729 16.54201404 149.86134269 11.2421875 146.328125 C10.8713932 144.18343925 10.8713932 144.18343925 10.87710571 141.47189331 C10.87179337 140.44576431 10.86648102 139.41963531 10.86100769 138.3624115 C10.870298 137.23202957 10.87958832 136.10164764 10.88916016 134.93701172 C10.88699997 133.74988083 10.88483978 132.56274994 10.88261414 131.33964539 C10.87870873 128.07682106 10.88770833 124.81430177 10.90073442 121.55151129 C10.90995612 118.13457714 10.89842248 114.7177322 10.88778687 111.30081177 C10.85764693 100.39161567 10.85908148 89.48246941 10.87803972 78.5732528 C10.89039529 71.41223073 10.88844362 64.25153093 10.85965192 57.09054577 C10.84694257 53.69080072 10.8440511 50.29165445 10.86433792 46.89193344 C10.88340169 43.0927545 10.87197382 39.29476421 10.85400391 35.49560547 C10.86734268 34.37736893 10.88068146 33.25913239 10.89442444 32.10700989 C10.80805183 23.88104136 8.70641637 19.16594718 3.25 13.12109375 C-3.4299855 7.42508952 -9.078201 4.69986327 -17.984375 4.98046875 C-25.39943326 5.90996197 -31.81144792 9.79229729 -36.7578125 15.328125 Z " fill="#232021" transform="translate(201.7578125,64.671875)"/>
<path d="M0 0 C4.95 0 9.9 0 15 0 C15 12.21 15 24.42 15 37 C16.98 37.66 18.96 38.32 21 39 C30.30035009 44.24562429 36.40390635 50.96879139 40 61 C42.72732072 72.21876609 41.70133244 82.9541079 36 93 C30.19934972 102.3271002 21.46143619 108.99821728 10.671875 111.55078125 C-0.81502581 113.48205843 -11.20480051 111.7679024 -20.828125 105.015625 C-28.96561692 98.14504799 -34.84207812 89.72765159 -36.26806641 78.97949219 C-37.30970337 66.30966564 -35.30302484 56.74147449 -27.1171875 46.6875 C-25.48573537 44.9924848 -23.82529086 43.48046261 -22 42 C-21.34 41.401875 -20.68 40.80375 -20 40.1875 C-17.1577788 38.49993116 -14.18946875 37.79736719 -11 37 C-11 34.69 -11 32.38 -11 30 C-10.26394531 29.98582031 -9.52789062 29.97164062 -8.76953125 29.95703125 C-2.34464777 29.69883426 -2.34464777 29.69883426 3.125 26.5625 C6.34977737 22.15530426 6.26017698 19.12212378 5.8125 13.75 C5.10125578 11.74240891 5.10125578 11.74240891 2.625 10.8125 C1.75875 10.544375 0.8925 10.27625 0 10 C-0.99 9.67 -1.98 9.34 -3 9 C-2.01 6.03 -1.02 3.06 0 0 Z " fill="#221E1F" transform="translate(184,180)"/>
<path d="M0 0 C7.92 0 15.84 0 24 0 C24 7.92 24 15.84 24 24 C31.92 24 39.84 24 48 24 C48 31.92 48 39.84 48 48 C55.92 48 63.84 48 72 48 C72 55.92 72 63.84 72 72 C65.73 72 59.46 72 53 72 C52.46375 69.525 51.9275 67.05 51.375 64.5 C49.23490992 55.59414625 46.20929628 50.07874675 38.625 44.6875 C37.10051525 43.76272991 35.55942439 42.86455135 34 42 C33.40832031 41.65839844 32.81664062 41.31679687 32.20703125 40.96484375 C24.33730989 37.22976628 12.63333451 37.65815686 4.5625 40.5 C-1.60806212 43.4025656 -6.23694038 48.23694038 -11 53 C-11.33 51.35 -11.66 49.7 -12 48 C-15.96 48 -19.92 48 -24 48 C-24 40.08 -24 32.16 -24 24 C-16.08 24 -8.16 24 0 24 C0 16.08 0 8.16 0 0 Z " fill="#EDEDED" transform="translate(168,24)"/>
<path d="M0 0 C1.22602512 3.67807537 0.70295577 5.88243927 0.0625 9.6875 C-0.13214844 10.86699219 -0.32679688 12.04648438 -0.52734375 13.26171875 C-0.68332031 14.16535156 -0.83929688 15.06898437 -1 16 C-0.37432129 15.98952637 0.25135742 15.97905273 0.89599609 15.96826172 C3.7222901 15.92676809 6.54852011 15.90069527 9.375 15.875 C10.35984375 15.85824219 11.3446875 15.84148437 12.359375 15.82421875 C13.77089844 15.81455078 13.77089844 15.81455078 15.2109375 15.8046875 C16.51490479 15.78897705 16.51490479 15.78897705 17.84521484 15.77294922 C20 16 20 16 22 18 C22.25 20.5 22.25 20.5 22 23 C20 25 20 25 17.75341797 25.22705078 C16.84221191 25.21657715 15.93100586 25.20610352 14.9921875 25.1953125 C14.00605469 25.18886719 13.01992187 25.18242188 12.00390625 25.17578125 C10.45509766 25.15064453 10.45509766 25.15064453 8.875 25.125 C7.83472656 25.11597656 6.79445312 25.10695313 5.72265625 25.09765625 C3.14834003 25.07403867 0.57414162 25.03816684 -2 25 C-2 28.63 -2 32.26 -2 36 C-0.86820313 35.97679687 0.26359375 35.95359375 1.4296875 35.9296875 C2.91145175 35.91093099 4.39322312 35.89273066 5.875 35.875 C6.62136719 35.85824219 7.36773437 35.84148437 8.13671875 35.82421875 C10.09194461 35.8066041 12.04742021 35.89679811 14 36 C14.66 36.66 15.32 37.32 16 38 C15.44444444 42.55555556 15.44444444 42.55555556 14 44 C11.30345146 44.07319621 8.63308542 44.09242537 5.9375 44.0625 C4.79958008 44.05573242 4.79958008 44.05573242 3.63867188 44.04882812 C1.75908129 44.0370068 -0.12046899 44.01907078 -2 44 C-2 47.63 -2 51.26 -2 55 C-0.86820313 54.96519531 0.26359375 54.93039063 1.4296875 54.89453125 C2.91144353 54.86639664 4.39321556 54.83909613 5.875 54.8125 C6.62136719 54.78736328 7.36773437 54.76222656 8.13671875 54.73632812 C10.3046875 54.70703125 10.3046875 54.70703125 14 55 C16 58 16 58 15.6875 60.125 C15 62 15 62 14 63 C11.30345146 63.07319621 8.63308542 63.09242537 5.9375 63.0625 C4.79958008 63.05573242 4.79958008 63.05573242 3.63867188 63.04882812 C1.75908129 63.0370068 -0.12046899 63.01907078 -2 63 C-2 66.63 -2 70.26 -2 74 C3.28 74 8.56 74 14 74 C15 81 15 81 14 83 C8.72 83 3.44 83 -2 83 C-2 86.63 -2 90.26 -2 94 C-0.85660156 93.98839844 0.28679687 93.97679687 1.46484375 93.96484375 C2.95572754 93.95546712 4.44661309 93.94636679 5.9375 93.9375 C6.69224609 93.92912109 7.44699219 93.92074219 8.22460938 93.91210938 C10.14994313 93.90347559 12.07535581 93.94775667 14 94 C15 95 15 95 15.125 98 C15 101 15 101 14 102 C11.30345146 102.07319621 8.63308542 102.09242537 5.9375 102.0625 C5.17888672 102.05798828 4.42027344 102.05347656 3.63867188 102.04882812 C1.75908129 102.0370068 -0.12046899 102.01907078 -2 102 C-2 105.63 -2 109.26 -2 113 C-0.43507812 112.97679687 1.12984375 112.95359375 2.7421875 112.9296875 C4.78645358 112.91093277 6.8307248 112.89273225 8.875 112.875 C9.90753906 112.85824219 10.94007813 112.84148437 12.00390625 112.82421875 C12.99003906 112.81777344 13.97617188 112.81132812 14.9921875 112.8046875 C16.35899658 112.78897705 16.35899658 112.78897705 17.75341797 112.77294922 C20 113 20 113 22 115 C22.1875 117.5625 22.1875 117.5625 22 120 C21 121 21 121 18.77514648 121.11352539 C17.33764038 121.10567017 17.33764038 121.10567017 15.87109375 121.09765625 C14.31938477 121.09282227 14.31938477 121.09282227 12.73632812 121.08789062 C11.64771484 121.07951172 10.55910156 121.07113281 9.4375 121.0625 C7.7987793 121.05573242 7.7987793 121.05573242 6.12695312 121.04882812 C3.41791505 121.03699826 0.70898401 121.02051543 -2 121 C-2 123.31 -2 125.62 -2 128 C-4.97 127.34 -7.94 126.68 -11 126 C-10.91573904 110.92720511 -10.82104269 95.85451062 -10.71247292 80.78187084 C-10.66232679 73.78355793 -10.61588417 66.78525685 -10.578125 59.78686523 C-10.54169678 53.03707487 -10.49499451 46.28742801 -10.44193649 39.53774452 C-10.42335813 36.9584915 -10.40826301 34.37921103 -10.39665604 31.79991722 C-10.37985255 28.19614855 -10.35083154 24.59267501 -10.31884766 20.98901367 C-10.31668747 19.91511383 -10.31452728 18.84121399 -10.31230164 17.73477173 C-10.30113815 16.75460587 -10.28997467 15.77444 -10.2784729 14.76457214 C-10.27294214 13.91191363 -10.26741138 13.05925512 -10.26171303 12.18075848 C-9.78584321 8.21551018 -6.77400284 4.77400284 -4 2 C-3.01 2 -2.02 2 -1 2 C-0.67 1.34 -0.34 0.68 0 0 Z " fill="#1E1B1C" transform="translate(162,82)"/>
<path d="M0 0 C7.94514768 2.27004219 7.94514768 2.27004219 12.25 6.25 C13.08015625 6.99765625 13.9103125 7.7453125 14.765625 8.515625 C20.49523227 14.88630721 20.41942032 20.6989107 20.34057617 28.88037109 C20.34123329 30.66658875 20.34123329 30.66658875 20.34190369 32.4888916 C20.34017635 35.74065504 20.32516944 38.99202715 20.30418181 42.2437129 C20.2853808 45.64696509 20.28366189 49.05022562 20.28010559 52.45352173 C20.27079514 58.89201842 20.24619504 65.33036162 20.21605712 71.76879084 C20.18248186 79.10129597 20.16601927 86.43380858 20.15097082 93.76637149 C20.11964448 108.84433306 20.0669036 123.92215115 20 139 C19.34 139.33 18.68 139.66 18 140 C18 133.73 18 127.46 18 121 C15.03 121 12.06 121 9 121 C9 129.25 9 137.5 9 146 C8.34 146 7.68 146 7 146 C7 133.79 7 121.58 7 109 C4.69 109 2.38 109 0 109 C-2.4375 108 -2.4375 108 -4 107 C-2.68 107 -1.36 107 0 107 C0 103.7 0 100.4 0 97 C5.94 97 11.88 97 18 97 C18 89.08 18 81.16 18 73 C12.06 73 6.12 73 0 73 C0 65.08 0 57.16 0 49 C5.94 49 11.88 49 18 49 C18 41.08 18 33.16 18 25 C12.06 25 6.12 25 0 25 C0 16.75 0 8.5 0 0 Z " fill="#FBFBFB" transform="translate(192,71)"/>
<path d="M0 0 C6.27 0 12.54 0 19 0 C18.05861187 4.70694064 16.79419377 7.5742736 14.5625 11.75 C8.44267325 23.7053697 6.69150448 37.60061669 10.234375 50.78515625 C12.63699922 57.73560489 15.56778043 64.49684713 19 71 C15.69428083 72.65285959 12.004622 72.1005118 8.375 72.0625 C5.61125 72.041875 2.8475 72.02125 0 72 C0 64.08 0 56.16 0 48 C-7.92 48 -15.84 48 -24 48 C-24 40.08 -24 32.16 -24 24 C-16.08 24 -8.16 24 0 24 C0 16.08 0 8.16 0 0 Z " fill="#EDEDED" transform="translate(120,216)"/>
<path d="M0 0 C3.96 0 7.92 0 12 0 C13.67184331 5.29417048 12.26514674 8.4591646 10.0078125 13.2421875 C7.89113355 19.03433997 7.87105272 25.31578254 7.79467773 31.42578125 C7.77982834 32.46628883 7.77982834 32.46628883 7.76467896 33.52781677 C7.73343784 35.78934478 7.70845681 38.05089369 7.68359375 40.3125 C7.6629918 41.89290877 7.64199454 43.47331242 7.62062073 45.05371094 C7.56573446 49.18983798 7.51617937 53.32601196 7.46777344 57.46221924 C7.41731235 61.69230264 7.36175544 65.92231887 7.30664062 70.15234375 C7.19946888 78.43483884 7.09793497 86.71739056 7 95 C6.67 95 6.34 95 6 95 C6 87.41 6 79.82 6 72 C4.02 72 2.04 72 0 72 C0 64.08 0 56.16 0 48 C-7.92 48 -15.84 48 -24 48 C-24 40.08 -24 32.16 -24 24 C-16.08 24 -8.16 24 0 24 C0 16.08 0 8.16 0 0 Z " fill="#FEFEFE" transform="translate(144,72)"/>
<path d="M0 0 C1.97558594 1.15356445 1.97558594 1.15356445 4 3 C4.45410156 5.54370117 4.45410156 5.54370117 4.390625 8.54296875 C4.37773437 9.61611328 4.36484375 10.68925781 4.3515625 11.79492188 C4.31804687 12.91447266 4.28453125 14.03402344 4.25 15.1875 C4.23195312 16.31865234 4.21390625 17.44980469 4.1953125 18.61523438 C4.14812652 21.41100376 4.08230595 24.20507972 4 27 C5.17804199 27.16520142 5.17804199 27.16520142 6.37988281 27.33374023 C9 28 9 28 10.921875 30.66015625 C11.52515625 31.78292969 12.1284375 32.90570313 12.75 34.0625 C18.36705381 43.8113482 24.76251173 49.34102485 35.42578125 53.1015625 C41.5743458 54.64710332 47.67160269 54.90371733 54 55 C53.01 55.495 53.01 55.495 52 56 C52.020625 57.299375 52.04125 58.59875 52.0625 59.9375 C52.08399454 61.29165633 52.07148199 62.64756083 52 64 C50.06194761 65.93805239 46.62990827 65.21922188 44.0625 65.25 C30.354163 65.21276668 20.15634445 60.23620273 10.3125 50.6875 C7 47.30861723 7 47.30861723 7 45 C6.34 45 5.68 45 5 45 C4.0351342 42.98227749 3.07841603 40.96065793 2.125 38.9375 C1.59132812 37.81214844 1.05765625 36.68679688 0.5078125 35.52734375 C-2.41926822 28.67979481 -3.34138168 22.79077548 -3.3125 15.4375 C-3.32861328 14.61314453 -3.34472656 13.78878906 -3.36132812 12.93945312 C-3.36539203 7.85550695 -2.73216054 4.44787085 0 0 Z " fill="#F9F8F8" transform="translate(140,237)"/>
<path d="M0 0 C0.99 0.495 0.99 0.495 2 1 C2.33 0.67 2.66 0.34 3 0 C3.51046875 0.36351562 4.0209375 0.72703125 4.546875 1.1015625 C17.16254446 9.82516372 27.81036587 14.00472659 43.0234375 14.65625 C46 15 46 15 48 17 C48.22705078 19.33837891 48.22705078 19.33837891 48.1953125 22.2265625 C48.19031738 23.15549316 48.18532227 24.08442383 48.18017578 25.04150391 C48.16196777 26.22405762 48.14375977 27.40661133 48.125 28.625 C48.08375 32.37875 48.0425 36.1325 48 40 C40.08 40 32.16 40 24 40 C24 32.08 24 24.16 24 16 C16.08 16 8.16 16 0 16 C0 10.72 0 5.44 0 0 Z " fill="#EDECEC" transform="translate(144,296)"/>
<path d="M0 0 C0.33 0 0.66 0 1 0 C1 2.31 1 4.62 1 7 C1.62567871 6.98952637 2.25135742 6.97905273 2.89599609 6.96826172 C5.7222901 6.92676809 8.54852011 6.90069527 11.375 6.875 C12.35984375 6.85824219 13.3446875 6.84148437 14.359375 6.82421875 C15.77089844 6.81455078 15.77089844 6.81455078 17.2109375 6.8046875 C18.51490479 6.78897705 18.51490479 6.78897705 19.84521484 6.77294922 C22 7 22 7 24 9 C24.25 11.5 24.25 11.5 24 14 C22 16 22 16 19.75341797 16.22705078 C18.84221191 16.21657715 17.93100586 16.20610352 16.9921875 16.1953125 C16.00605469 16.18886719 15.01992187 16.18242188 14.00390625 16.17578125 C12.45509766 16.15064453 12.45509766 16.15064453 10.875 16.125 C9.83472656 16.11597656 8.79445312 16.10695313 7.72265625 16.09765625 C5.14834003 16.07403867 2.57414162 16.03816684 0 16 C0 19.63 0 23.26 0 27 C1.13179687 26.97679688 2.26359375 26.95359375 3.4296875 26.9296875 C4.91145175 26.91093099 6.39322312 26.89273066 7.875 26.875 C8.62136719 26.85824219 9.36773437 26.84148437 10.13671875 26.82421875 C12.09194461 26.8066041 14.04742021 26.89679811 16 27 C16.66 27.66 17.32 28.32 18 29 C17.44444444 33.55555556 17.44444444 33.55555556 16 35 C13.30345146 35.07319621 10.63308542 35.09242537 7.9375 35.0625 C6.79958008 35.05573242 6.79958008 35.05573242 5.63867188 35.04882812 C3.75908129 35.0370068 1.87953101 35.01907078 0 35 C0 38.63 0 42.26 0 46 C1.13179687 45.96519531 2.26359375 45.93039063 3.4296875 45.89453125 C4.91144353 45.86639664 6.39321556 45.83909613 7.875 45.8125 C8.62136719 45.78736328 9.36773437 45.76222656 10.13671875 45.73632812 C12.3046875 45.70703125 12.3046875 45.70703125 16 46 C18 49 18 49 17.6875 51.125 C17 53 17 53 16 54 C13.14122091 54.23701239 10.30116703 54.42219182 7.4375 54.5625 C6.63119141 54.60568359 5.82488281 54.64886719 4.99414062 54.69335938 C2.99631195 54.79975262 0.9981793 54.90040888 -1 55 C-1.33 56.98 -1.66 58.96 -2 61 C-3.98 61.495 -3.98 61.495 -6 62 C-6.06949335 54.48962286 -6.12280778 46.97927904 -6.15543652 39.46865368 C-6.17109635 35.98118424 -6.1923398 32.49393468 -6.22631836 29.0065918 C-6.2651328 24.99786257 -6.2797065 20.98936452 -6.29296875 16.98046875 C-6.30845261 15.72727341 -6.32393646 14.47407806 -6.33988953 13.1829071 C-6.34011612 12.02193008 -6.34034271 10.86095306 -6.34057617 9.66479492 C-6.34723801 8.64109299 -6.35389984 7.61739105 -6.36076355 6.56266785 C-5.95037913 3.64752037 -5.28869739 2.77365841 -3 1 C-2.34 2.98 -1.68 4.96 -1 7 C-0.67 4.69 -0.34 2.38 0 0 Z " fill="#252324" transform="translate(160,91)"/>
<path d="M0 0 C7.26 0 14.52 0 22 0 C22 0.33 22 0.66 22 1 C15.07 1 8.14 1 1 1 C1 3.31 1 5.62 1 8 C-0.5390625 9.75 -0.5390625 9.75 -2.625 11 C-6.41388554 13.4856164 -9.00659312 16.10906711 -11.7734375 19.6796875 C-12.17820313 20.11539063 -12.58296875 20.55109375 -13 21 C-13.66 21 -14.32 21 -15 21 C-15.2475 21.78375 -15.495 22.5675 -15.75 23.375 C-17.07506363 27.21768452 -18.5655459 30.96668067 -20.09765625 34.73046875 C-24.2183165 45.09455361 -23.08949579 58.34298477 -19.0703125 68.5546875 C-18.71710938 69.36164063 -18.36390625 70.16859375 -18 71 C-17.33094738 72.6657103 -16.66357338 74.33209935 -16 76 C-17.485 76.495 -17.485 76.495 -19 77 C-21 75.5625 -21 75.5625 -23 73 C-23.35442445 69.97175582 -23.23347235 67.03514061 -23 64 C-25.64 64 -28.28 64 -31 64 C-33.90152866 45.91224475 -31.75711565 30.39280438 -21.04296875 15.23046875 C-17.46062522 10.55218838 -14.18130422 6.84971732 -9 4 C-8.34 4.33 -7.68 4.66 -7 5 C-6.67 4.34 -6.34 3.68 -6 3 C-6 3.99 -6 4.98 -6 6 C-3.03 6.495 -3.03 6.495 0 7 C0 4.69 0 2.38 0 0 Z " fill="#211D1E" transform="translate(160,203)"/>
<path d="M0 0 C0 1.32 0 2.64 0 4 C2.31 4 4.62 4 7 4 C7 11.92 7 19.84 7 28 C-0.92 28 -8.84 28 -17 28 C-17 20.41 -17 12.82 -17 5 C-19.64 5 -22.28 5 -25 5 C-25 4.67 -25 4.34 -25 4 C-21.96050698 3.32315702 -18.91810835 2.66038128 -15.875 2 C-15.0190625 1.80921875 -14.163125 1.6184375 -13.28125 1.421875 C-8.77267206 0.45079667 -4.64354396 -0.24359575 0 0 Z " fill="#FEFEFE" transform="translate(209,308)"/>
<path d="M0 0 C0 8.58 0 17.16 0 26 C-7.92 26 -15.84 26 -24 26 C-24.33 21.05 -24.66 16.1 -25 11 C-25.99 11.495 -25.99 11.495 -27 12 C-25.23609496 7.2374564 -21.5303769 4.3953063 -17.21484375 2.015625 C-11.05806957 -0.66453132 -7.34048633 0 0 0 Z " fill="#EBEBEB" transform="translate(192,70)"/>
<path d="M0 0 C7.92 0 15.84 0 24 0 C24 7.92 24 15.84 24 24 C16.08 24 8.16 24 0 24 C0 16.08 0 8.16 0 0 Z " fill="#EDEDED" transform="translate(336,336)"/>
<path d="M0 0 C7.92 0 15.84 0 24 0 C24 7.92 24 15.84 24 24 C16.08 24 8.16 24 0 24 C0 16.08 0 8.16 0 0 Z " fill="#FFFFFF" transform="translate(312,336)"/>
<path d="M0 0 C7.92 0 15.84 0 24 0 C24 7.92 24 15.84 24 24 C16.08 24 8.16 24 0 24 C0 16.08 0 8.16 0 0 Z " fill="#EDEDED" transform="translate(288,336)"/>
<path d="M0 0 C7.92 0 15.84 0 24 0 C24 7.92 24 15.84 24 24 C16.08 24 8.16 24 0 24 C0 16.08 0 8.16 0 0 Z " fill="#FFFFFF" transform="translate(264,336)"/>
<path d="M0 0 C7.92 0 15.84 0 24 0 C24 7.92 24 15.84 24 24 C16.08 24 8.16 24 0 24 C0 16.08 0 8.16 0 0 Z " fill="#EDEDED" transform="translate(240,336)"/>
<path d="M0 0 C7.92 0 15.84 0 24 0 C24 7.92 24 15.84 24 24 C16.08 24 8.16 24 0 24 C0 16.08 0 8.16 0 0 Z " fill="#FFFFFF" transform="translate(216,336)"/>
<path d="M0 0 C7.92 0 15.84 0 24 0 C24 7.92 24 15.84 24 24 C16.08 24 8.16 24 0 24 C0 16.08 0 8.16 0 0 Z " fill="#EDEDED" transform="translate(192,336)"/>
<path d="M0 0 C7.92 0 15.84 0 24 0 C24 7.92 24 15.84 24 24 C16.08 24 8.16 24 0 24 C0 16.08 0 8.16 0 0 Z " fill="#FFFFFF" transform="translate(168,336)"/>
<path d="M0 0 C7.92 0 15.84 0 24 0 C24 7.92 24 15.84 24 24 C16.08 24 8.16 24 0 24 C0 16.08 0 8.16 0 0 Z " fill="#EDEDED" transform="translate(144,336)"/>
<path d="M0 0 C7.92 0 15.84 0 24 0 C24 7.92 24 15.84 24 24 C16.08 24 8.16 24 0 24 C0 16.08 0 8.16 0 0 Z " fill="#FFFFFF" transform="translate(120,336)"/>
<path d="M0 0 C7.92 0 15.84 0 24 0 C24 7.92 24 15.84 24 24 C16.08 24 8.16 24 0 24 C0 16.08 0 8.16 0 0 Z " fill="#EDEDED" transform="translate(96,336)"/>
<path d="M0 0 C7.92 0 15.84 0 24 0 C24 7.92 24 15.84 24 24 C16.08 24 8.16 24 0 24 C0 16.08 0 8.16 0 0 Z " fill="#FFFFFF" transform="translate(72,336)"/>
<path d="M0 0 C7.92 0 15.84 0 24 0 C24 7.92 24 15.84 24 24 C16.08 24 8.16 24 0 24 C0 16.08 0 8.16 0 0 Z " fill="#EDEDED" transform="translate(48,336)"/>
<path d="M0 0 C7.92 0 15.84 0 24 0 C24 7.92 24 15.84 24 24 C16.08 24 8.16 24 0 24 C0 16.08 0 8.16 0 0 Z " fill="#FFFFFF" transform="translate(24,336)"/>
<path d="M0 0 C7.92 0 15.84 0 24 0 C24 7.92 24 15.84 24 24 C16.08 24 8.16 24 0 24 C0 16.08 0 8.16 0 0 Z " fill="#EDEDED" transform="translate(0,336)"/>
<path d="M0 0 C7.92 0 15.84 0 24 0 C24 7.92 24 15.84 24 24 C16.08 24 8.16 24 0 24 C0 16.08 0 8.16 0 0 Z " fill="#FFFFFF" transform="translate(336,312)"/>
<path d="M0 0 C7.92 0 15.84 0 24 0 C24 7.92 24 15.84 24 24 C16.08 24 8.16 24 0 24 C0 16.08 0 8.16 0 0 Z " fill="#EDEDED" transform="translate(312,312)"/>
<path d="M0 0 C7.92 0 15.84 0 24 0 C24 7.92 24 15.84 24 24 C16.08 24 8.16 24 0 24 C0 16.08 0 8.16 0 0 Z " fill="#FFFFFF" transform="translate(288,312)"/>
<path d="M0 0 C7.92 0 15.84 0 24 0 C24 7.92 24 15.84 24 24 C16.08 24 8.16 24 0 24 C0 16.08 0 8.16 0 0 Z " fill="#EDEDED" transform="translate(264,312)"/>
<path d="M0 0 C7.92 0 15.84 0 24 0 C24 7.92 24 15.84 24 24 C16.08 24 8.16 24 0 24 C0 16.08 0 8.16 0 0 Z " fill="#FFFFFF" transform="translate(240,312)"/>
<path d="M0 0 C7.92 0 15.84 0 24 0 C24 7.92 24 15.84 24 24 C16.08 24 8.16 24 0 24 C0 16.08 0 8.16 0 0 Z " fill="#EDEDED" transform="translate(216,312)"/>
<path d="M0 0 C7.92 0 15.84 0 24 0 C24 7.92 24 15.84 24 24 C16.08 24 8.16 24 0 24 C0 16.08 0 8.16 0 0 Z " fill="#FFFEFF" transform="translate(144,312)"/>
<path d="M0 0 C7.92 0 15.84 0 24 0 C24 7.92 24 15.84 24 24 C16.08 24 8.16 24 0 24 C0 16.08 0 8.16 0 0 Z " fill="#EDEDED" transform="translate(120,312)"/>
<path d="M0 0 C7.92 0 15.84 0 24 0 C24 7.92 24 15.84 24 24 C16.08 24 8.16 24 0 24 C0 16.08 0 8.16 0 0 Z " fill="#FFFFFF" transform="translate(96,312)"/>
<path d="M0 0 C7.92 0 15.84 0 24 0 C24 7.92 24 15.84 24 24 C16.08 24 8.16 24 0 24 C0 16.08 0 8.16 0 0 Z " fill="#EDEDED" transform="translate(72,312)"/>
<path d="M0 0 C7.92 0 15.84 0 24 0 C24 7.92 24 15.84 24 24 C16.08 24 8.16 24 0 24 C0 16.08 0 8.16 0 0 Z " fill="#FFFFFF" transform="translate(48,312)"/>
<path d="M0 0 C7.92 0 15.84 0 24 0 C24 7.92 24 15.84 24 24 C16.08 24 8.16 24 0 24 C0 16.08 0 8.16 0 0 Z " fill="#EDEDED" transform="translate(24,312)"/>
<path d="M0 0 C7.92 0 15.84 0 24 0 C24 7.92 24 15.84 24 24 C16.08 24 8.16 24 0 24 C0 16.08 0 8.16 0 0 Z " fill="#FFFFFF" transform="translate(0,312)"/>
<path d="M0 0 C7.92 0 15.84 0 24 0 C24 7.92 24 15.84 24 24 C16.08 24 8.16 24 0 24 C0 16.08 0 8.16 0 0 Z " fill="#EDEDED" transform="translate(336,288)"/>
<path d="M0 0 C7.92 0 15.84 0 24 0 C24 7.92 24 15.84 24 24 C16.08 24 8.16 24 0 24 C0 16.08 0 8.16 0 0 Z " fill="#FFFFFF" transform="translate(312,288)"/>
<path d="M0 0 C7.92 0 15.84 0 24 0 C24 7.92 24 15.84 24 24 C16.08 24 8.16 24 0 24 C0 16.08 0 8.16 0 0 Z " fill="#EDEDED" transform="translate(288,288)"/>
<path d="M0 0 C7.92 0 15.84 0 24 0 C24 7.92 24 15.84 24 24 C16.08 24 8.16 24 0 24 C0 16.08 0 8.16 0 0 Z " fill="#FFFFFF" transform="translate(264,288)"/>
<path d="M0 0 C7.92 0 15.84 0 24 0 C24 7.92 24 15.84 24 24 C16.08 24 8.16 24 0 24 C0 16.08 0 8.16 0 0 Z " fill="#EDEDED" transform="translate(240,288)"/>
<path d="M0 0 C1.921875 2.1640625 1.921875 2.1640625 3.75 4.625 C4.67039063 5.85089844 4.67039063 5.85089844 5.609375 7.1015625 C6.06828125 7.72804688 6.5271875 8.35453125 7 9 C6.01 9.495 6.01 9.495 5 10 C4.67 9.34 4.34 8.68 4 8 C3.67 12.95 3.34 17.9 3 23 C-4.92 23 -12.84 23 -21 23 C-21 15.08 -21 7.16 -21 -1 C-18.2775 -1.20625 -15.555 -1.4125 -12.75 -1.625 C-11.89889648 -1.69541504 -11.04779297 -1.76583008 -10.17089844 -1.83837891 C-2.98308464 -2.32017694 -2.98308464 -2.32017694 0 0 Z " fill="#FEFEFE" transform="translate(141,289)"/>
<path d="M0 0 C7.92 0 15.84 0 24 0 C24 7.92 24 15.84 24 24 C16.08 24 8.16 24 0 24 C0 16.08 0 8.16 0 0 Z " fill="#EDEDED" transform="translate(96,288)"/>
<path d="M0 0 C7.92 0 15.84 0 24 0 C24 7.92 24 15.84 24 24 C16.08 24 8.16 24 0 24 C0 16.08 0 8.16 0 0 Z " fill="#FFFFFF" transform="translate(72,288)"/>
<path d="M0 0 C7.92 0 15.84 0 24 0 C24 7.92 24 15.84 24 24 C16.08 24 8.16 24 0 24 C0 16.08 0 8.16 0 0 Z " fill="#EDEDED" transform="translate(48,288)"/>
<path d="M0 0 C7.92 0 15.84 0 24 0 C24 7.92 24 15.84 24 24 C16.08 24 8.16 24 0 24 C0 16.08 0 8.16 0 0 Z " fill="#FFFFFF" transform="translate(24,288)"/>
<path d="M0 0 C7.92 0 15.84 0 24 0 C24 7.92 24 15.84 24 24 C16.08 24 8.16 24 0 24 C0 16.08 0 8.16 0 0 Z " fill="#EDEDED" transform="translate(0,288)"/>
<path d="M0 0 C7.92 0 15.84 0 24 0 C24 7.92 24 15.84 24 24 C16.08 24 8.16 24 0 24 C0 16.08 0 8.16 0 0 Z " fill="#FFFFFF" transform="translate(336,264)"/>
<path d="M0 0 C7.92 0 15.84 0 24 0 C24 7.92 24 15.84 24 24 C16.08 24 8.16 24 0 24 C0 16.08 0 8.16 0 0 Z " fill="#EDEDED" transform="translate(312,264)"/>
<path d="M0 0 C7.92 0 15.84 0 24 0 C24 7.92 24 15.84 24 24 C16.08 24 8.16 24 0 24 C0 16.08 0 8.16 0 0 Z " fill="#FFFFFF" transform="translate(288,264)"/>
<path d="M0 0 C7.92 0 15.84 0 24 0 C24 7.92 24 15.84 24 24 C16.08 24 8.16 24 0 24 C0 16.08 0 8.16 0 0 Z " fill="#EDEDED" transform="translate(264,264)"/>
<path d="M0 0 C7.92 0 15.84 0 24 0 C24 7.92 24 15.84 24 24 C16.08 24 8.16 24 0 24 C0 16.08 0 8.16 0 0 Z " fill="#FFFFFF" transform="translate(96,264)"/>
<path d="M0 0 C7.92 0 15.84 0 24 0 C24 7.92 24 15.84 24 24 C16.08 24 8.16 24 0 24 C0 16.08 0 8.16 0 0 Z " fill="#EDEDED" transform="translate(72,264)"/>
<path d="M0 0 C7.92 0 15.84 0 24 0 C24 7.92 24 15.84 24 24 C16.08 24 8.16 24 0 24 C0 16.08 0 8.16 0 0 Z " fill="#FFFFFF" transform="translate(48,264)"/>
<path d="M0 0 C7.92 0 15.84 0 24 0 C24 7.92 24 15.84 24 24 C16.08 24 8.16 24 0 24 C0 16.08 0 8.16 0 0 Z " fill="#EDEDED" transform="translate(24,264)"/>
<path d="M0 0 C7.92 0 15.84 0 24 0 C24 7.92 24 15.84 24 24 C16.08 24 8.16 24 0 24 C0 16.08 0 8.16 0 0 Z " fill="#FFFFFF" transform="translate(0,264)"/>
<path d="M0 0 C7.92 0 15.84 0 24 0 C24 7.92 24 15.84 24 24 C16.08 24 8.16 24 0 24 C0 16.08 0 8.16 0 0 Z " fill="#EDEDED" transform="translate(336,240)"/>
<path d="M0 0 C7.92 0 15.84 0 24 0 C24 7.92 24 15.84 24 24 C16.08 24 8.16 24 0 24 C0 16.08 0 8.16 0 0 Z " fill="#FFFFFF" transform="translate(312,240)"/>
<path d="M0 0 C7.92 0 15.84 0 24 0 C24 7.92 24 15.84 24 24 C16.08 24 8.16 24 0 24 C0 16.08 0 8.16 0 0 Z " fill="#EDEDED" transform="translate(288,240)"/>
<path d="M0 0 C7.92 0 15.84 0 24 0 C24 7.92 24 15.84 24 24 C16.08 24 8.16 24 0 24 C0 16.08 0 8.16 0 0 Z " fill="#FFFFFF" transform="translate(264,240)"/>
<path d="M0 0 C7.92 0 15.84 0 24 0 C24 7.92 24 15.84 24 24 C16.08 24 8.16 24 0 24 C0 16.08 0 8.16 0 0 Z " fill="#FFFFFF" transform="translate(72,240)"/>
<path d="M0 0 C7.92 0 15.84 0 24 0 C24 7.92 24 15.84 24 24 C16.08 24 8.16 24 0 24 C0 16.08 0 8.16 0 0 Z " fill="#EDEDED" transform="translate(48,240)"/>
<path d="M0 0 C7.92 0 15.84 0 24 0 C24 7.92 24 15.84 24 24 C16.08 24 8.16 24 0 24 C0 16.08 0 8.16 0 0 Z " fill="#FFFFFF" transform="translate(24,240)"/>
<path d="M0 0 C7.92 0 15.84 0 24 0 C24 7.92 24 15.84 24 24 C16.08 24 8.16 24 0 24 C0 16.08 0 8.16 0 0 Z " fill="#EDEDED" transform="translate(0,240)"/>
<path d="M0 0 C7.92 0 15.84 0 24 0 C24 7.92 24 15.84 24 24 C16.08 24 8.16 24 0 24 C0 16.08 0 8.16 0 0 Z " fill="#FFFFFF" transform="translate(336,216)"/>
<path d="M0 0 C7.92 0 15.84 0 24 0 C24 7.92 24 15.84 24 24 C16.08 24 8.16 24 0 24 C0 16.08 0 8.16 0 0 Z " fill="#EDEDED" transform="translate(312,216)"/>
<path d="M0 0 C7.92 0 15.84 0 24 0 C24 7.92 24 15.84 24 24 C16.08 24 8.16 24 0 24 C0 16.08 0 8.16 0 0 Z " fill="#FFFFFF" transform="translate(288,216)"/>
<path d="M0 0 C7.92 0 15.84 0 24 0 C24 7.92 24 15.84 24 24 C16.08 24 8.16 24 0 24 C0 16.08 0 8.16 0 0 Z " fill="#EDEDED" transform="translate(264,216)"/>
<path d="M0 0 C7.92 0 15.84 0 24 0 C24 7.92 24 15.84 24 24 C16.08 24 8.16 24 0 24 C0 16.08 0 8.16 0 0 Z " fill="#FFFFFF" transform="translate(96,216)"/>
<path d="M0 0 C7.92 0 15.84 0 24 0 C24 7.92 24 15.84 24 24 C16.08 24 8.16 24 0 24 C0 16.08 0 8.16 0 0 Z " fill="#EDEDED" transform="translate(72,216)"/>
<path d="M0 0 C7.92 0 15.84 0 24 0 C24 7.92 24 15.84 24 24 C16.08 24 8.16 24 0 24 C0 16.08 0 8.16 0 0 Z " fill="#FFFFFF" transform="translate(48,216)"/>
<path d="M0 0 C7.92 0 15.84 0 24 0 C24 7.92 24 15.84 24 24 C16.08 24 8.16 24 0 24 C0 16.08 0 8.16 0 0 Z " fill="#EDEDED" transform="translate(24,216)"/>
<path d="M0 0 C7.92 0 15.84 0 24 0 C24 7.92 24 15.84 24 24 C16.08 24 8.16 24 0 24 C0 16.08 0 8.16 0 0 Z " fill="#FFFFFF" transform="translate(0,216)"/>
<path d="M0 0 C7.92 0 15.84 0 24 0 C24 7.92 24 15.84 24 24 C16.08 24 8.16 24 0 24 C0 16.08 0 8.16 0 0 Z " fill="#EDEDED" transform="translate(336,192)"/>
<path d="M0 0 C7.92 0 15.84 0 24 0 C24 7.92 24 15.84 24 24 C16.08 24 8.16 24 0 24 C0 16.08 0 8.16 0 0 Z " fill="#FFFFFF" transform="translate(312,192)"/>
<path d="M0 0 C7.92 0 15.84 0 24 0 C24 7.92 24 15.84 24 24 C16.08 24 8.16 24 0 24 C0 16.08 0 8.16 0 0 Z " fill="#EDEDED" transform="translate(288,192)"/>
<path d="M0 0 C7.92 0 15.84 0 24 0 C24 7.92 24 15.84 24 24 C16.08 24 8.16 24 0 24 C0 16.08 0 8.16 0 0 Z " fill="#FFFFFF" transform="translate(264,192)"/>
<path d="M0 0 C7.92 0 15.84 0 24 0 C24 7.92 24 15.84 24 24 C16.08 24 8.16 24 0 24 C0 16.08 0 8.16 0 0 Z " fill="#EDEDED" transform="translate(240,192)"/>
<path d="M0 0 C7.92 0 15.84 0 24 0 C24 7.92 24 15.84 24 24 C16.08 24 8.16 24 0 24 C0 16.08 0 8.16 0 0 Z " fill="#EDEDED" transform="translate(96,192)"/>
<path d="M0 0 C7.92 0 15.84 0 24 0 C24 7.92 24 15.84 24 24 C16.08 24 8.16 24 0 24 C0 16.08 0 8.16 0 0 Z " fill="#FFFFFF" transform="translate(72,192)"/>
<path d="M0 0 C7.92 0 15.84 0 24 0 C24 7.92 24 15.84 24 24 C16.08 24 8.16 24 0 24 C0 16.08 0 8.16 0 0 Z " fill="#EDEDED" transform="translate(48,192)"/>
<path d="M0 0 C7.92 0 15.84 0 24 0 C24 7.92 24 15.84 24 24 C16.08 24 8.16 24 0 24 C0 16.08 0 8.16 0 0 Z " fill="#FFFFFF" transform="translate(24,192)"/>
<path d="M0 0 C7.92 0 15.84 0 24 0 C24 7.92 24 15.84 24 24 C16.08 24 8.16 24 0 24 C0 16.08 0 8.16 0 0 Z " fill="#EDEDED" transform="translate(0,192)"/>
<path d="M0 0 C7.92 0 15.84 0 24 0 C24 7.92 24 15.84 24 24 C16.08 24 8.16 24 0 24 C0 16.08 0 8.16 0 0 Z " fill="#FFFFFF" transform="translate(336,168)"/>
<path d="M0 0 C7.92 0 15.84 0 24 0 C24 7.92 24 15.84 24 24 C16.08 24 8.16 24 0 24 C0 16.08 0 8.16 0 0 Z " fill="#EDEDED" transform="translate(312,168)"/>
<path d="M0 0 C7.92 0 15.84 0 24 0 C24 7.92 24 15.84 24 24 C16.08 24 8.16 24 0 24 C0 16.08 0 8.16 0 0 Z " fill="#FFFFFF" transform="translate(288,168)"/>
<path d="M0 0 C7.92 0 15.84 0 24 0 C24 7.92 24 15.84 24 24 C16.08 24 8.16 24 0 24 C0 16.08 0 8.16 0 0 Z " fill="#EDEDED" transform="translate(264,168)"/>
<path d="M0 0 C7.92 0 15.84 0 24 0 C24 7.92 24 15.84 24 24 C16.08 24 8.16 24 0 24 C0 16.08 0 8.16 0 0 Z " fill="#FFFFFF" transform="translate(240,168)"/>
<path d="M0 0 C7.92 0 15.84 0 24 0 C24 7.92 24 15.84 24 24 C16.08 24 8.16 24 0 24 C0 16.08 0 8.16 0 0 Z " fill="#EDEDED" transform="translate(120,168)"/>
<path d="M0 0 C7.92 0 15.84 0 24 0 C24 7.92 24 15.84 24 24 C16.08 24 8.16 24 0 24 C0 16.08 0 8.16 0 0 Z " fill="#FFFFFF" transform="translate(96,168)"/>
<path d="M0 0 C7.92 0 15.84 0 24 0 C24 7.92 24 15.84 24 24 C16.08 24 8.16 24 0 24 C0 16.08 0 8.16 0 0 Z " fill="#EDEDED" transform="translate(72,168)"/>
<path d="M0 0 C7.92 0 15.84 0 24 0 C24 7.92 24 15.84 24 24 C16.08 24 8.16 24 0 24 C0 16.08 0 8.16 0 0 Z " fill="#FFFFFF" transform="translate(48,168)"/>
<path d="M0 0 C7.92 0 15.84 0 24 0 C24 7.92 24 15.84 24 24 C16.08 24 8.16 24 0 24 C0 16.08 0 8.16 0 0 Z " fill="#EDEDED" transform="translate(24,168)"/>
<path d="M0 0 C7.92 0 15.84 0 24 0 C24 7.92 24 15.84 24 24 C16.08 24 8.16 24 0 24 C0 16.08 0 8.16 0 0 Z " fill="#FFFFFF" transform="translate(0,168)"/>
<path d="M0 0 C7.92 0 15.84 0 24 0 C24 7.92 24 15.84 24 24 C16.08 24 8.16 24 0 24 C0 16.08 0 8.16 0 0 Z " fill="#EDEDED" transform="translate(336,144)"/>
<path d="M0 0 C7.92 0 15.84 0 24 0 C24 7.92 24 15.84 24 24 C16.08 24 8.16 24 0 24 C0 16.08 0 8.16 0 0 Z " fill="#FFFFFF" transform="translate(312,144)"/>
<path d="M0 0 C7.92 0 15.84 0 24 0 C24 7.92 24 15.84 24 24 C16.08 24 8.16 24 0 24 C0 16.08 0 8.16 0 0 Z " fill="#EDEDED" transform="translate(288,144)"/>
<path d="M0 0 C7.92 0 15.84 0 24 0 C24 7.92 24 15.84 24 24 C16.08 24 8.16 24 0 24 C0 16.08 0 8.16 0 0 Z " fill="#FFFFFF" transform="translate(264,144)"/>
<path d="M0 0 C7.92 0 15.84 0 24 0 C24 7.92 24 15.84 24 24 C16.08 24 8.16 24 0 24 C0 16.08 0 8.16 0 0 Z " fill="#EDEDED" transform="translate(240,144)"/>
<path d="M0 0 C7.92 0 15.84 0 24 0 C24 7.92 24 15.84 24 24 C16.08 24 8.16 24 0 24 C0 16.08 0 8.16 0 0 Z " fill="#FFFFFF" transform="translate(120,144)"/>
<path d="M0 0 C7.92 0 15.84 0 24 0 C24 7.92 24 15.84 24 24 C16.08 24 8.16 24 0 24 C0 16.08 0 8.16 0 0 Z " fill="#EDEDED" transform="translate(96,144)"/>
<path d="M0 0 C7.92 0 15.84 0 24 0 C24 7.92 24 15.84 24 24 C16.08 24 8.16 24 0 24 C0 16.08 0 8.16 0 0 Z " fill="#FFFFFF" transform="translate(72,144)"/>
<path d="M0 0 C7.92 0 15.84 0 24 0 C24 7.92 24 15.84 24 24 C16.08 24 8.16 24 0 24 C0 16.08 0 8.16 0 0 Z " fill="#EDEDED" transform="translate(48,144)"/>
<path d="M0 0 C7.92 0 15.84 0 24 0 C24 7.92 24 15.84 24 24 C16.08 24 8.16 24 0 24 C0 16.08 0 8.16 0 0 Z " fill="#FFFFFF" transform="translate(24,144)"/>
<path d="M0 0 C7.92 0 15.84 0 24 0 C24 7.92 24 15.84 24 24 C16.08 24 8.16 24 0 24 C0 16.08 0 8.16 0 0 Z " fill="#EDEDED" transform="translate(0,144)"/>
<path d="M0 0 C7.92 0 15.84 0 24 0 C24 7.92 24 15.84 24 24 C16.08 24 8.16 24 0 24 C0 16.08 0 8.16 0 0 Z " fill="#FFFFFF" transform="translate(336,120)"/>
<path d="M0 0 C7.92 0 15.84 0 24 0 C24 7.92 24 15.84 24 24 C16.08 24 8.16 24 0 24 C0 16.08 0 8.16 0 0 Z " fill="#EDEDED" transform="translate(312,120)"/>
<path d="M0 0 C7.92 0 15.84 0 24 0 C24 7.92 24 15.84 24 24 C16.08 24 8.16 24 0 24 C0 16.08 0 8.16 0 0 Z " fill="#FFFFFF" transform="translate(288,120)"/>
<path d="M0 0 C7.92 0 15.84 0 24 0 C24 7.92 24 15.84 24 24 C16.08 24 8.16 24 0 24 C0 16.08 0 8.16 0 0 Z " fill="#EDEDED" transform="translate(264,120)"/>
<path d="M0 0 C7.92 0 15.84 0 24 0 C24 7.92 24 15.84 24 24 C16.08 24 8.16 24 0 24 C0 16.08 0 8.16 0 0 Z " fill="#FFFFFF" transform="translate(240,120)"/>
<path d="M0 0 C7.92 0 15.84 0 24 0 C24 7.92 24 15.84 24 24 C16.08 24 8.16 24 0 24 C0 16.08 0 8.16 0 0 Z " fill="#EDEDED" transform="translate(120,120)"/>
<path d="M0 0 C7.92 0 15.84 0 24 0 C24 7.92 24 15.84 24 24 C16.08 24 8.16 24 0 24 C0 16.08 0 8.16 0 0 Z " fill="#FFFFFF" transform="translate(96,120)"/>
<path d="M0 0 C7.92 0 15.84 0 24 0 C24 7.92 24 15.84 24 24 C16.08 24 8.16 24 0 24 C0 16.08 0 8.16 0 0 Z " fill="#EDEDED" transform="translate(72,120)"/>
<path d="M0 0 C7.92 0 15.84 0 24 0 C24 7.92 24 15.84 24 24 C16.08 24 8.16 24 0 24 C0 16.08 0 8.16 0 0 Z " fill="#FFFFFF" transform="translate(48,120)"/>
<path d="M0 0 C7.92 0 15.84 0 24 0 C24 7.92 24 15.84 24 24 C16.08 24 8.16 24 0 24 C0 16.08 0 8.16 0 0 Z " fill="#EDEDED" transform="translate(24,120)"/>
<path d="M0 0 C7.92 0 15.84 0 24 0 C24 7.92 24 15.84 24 24 C16.08 24 8.16 24 0 24 C0 16.08 0 8.16 0 0 Z " fill="#FFFFFF" transform="translate(0,120)"/>
<path d="M0 0 C7.92 0 15.84 0 24 0 C24 7.92 24 15.84 24 24 C16.08 24 8.16 24 0 24 C0 16.08 0 8.16 0 0 Z " fill="#EDEDED" transform="translate(336,96)"/>
<path d="M0 0 C7.92 0 15.84 0 24 0 C24 7.92 24 15.84 24 24 C16.08 24 8.16 24 0 24 C0 16.08 0 8.16 0 0 Z " fill="#FFFFFF" transform="translate(312,96)"/>
<path d="M0 0 C7.92 0 15.84 0 24 0 C24 7.92 24 15.84 24 24 C16.08 24 8.16 24 0 24 C0 16.08 0 8.16 0 0 Z " fill="#EDEDED" transform="translate(288,96)"/>
<path d="M0 0 C7.92 0 15.84 0 24 0 C24 7.92 24 15.84 24 24 C16.08 24 8.16 24 0 24 C0 16.08 0 8.16 0 0 Z " fill="#FFFFFF" transform="translate(264,96)"/>
<path d="M0 0 C7.92 0 15.84 0 24 0 C24 7.92 24 15.84 24 24 C16.08 24 8.16 24 0 24 C0 16.08 0 8.16 0 0 Z " fill="#EDEDED" transform="translate(240,96)"/>
<path d="M0 0 C7.92 0 15.84 0 24 0 C24 7.92 24 15.84 24 24 C16.08 24 8.16 24 0 24 C0 16.08 0 8.16 0 0 Z " fill="#EDEDED" transform="translate(96,96)"/>
<path d="M0 0 C7.92 0 15.84 0 24 0 C24 7.92 24 15.84 24 24 C16.08 24 8.16 24 0 24 C0 16.08 0 8.16 0 0 Z " fill="#FFFFFF" transform="translate(72,96)"/>
<path d="M0 0 C7.92 0 15.84 0 24 0 C24 7.92 24 15.84 24 24 C16.08 24 8.16 24 0 24 C0 16.08 0 8.16 0 0 Z " fill="#EDEDED" transform="translate(48,96)"/>
<path d="M0 0 C7.92 0 15.84 0 24 0 C24 7.92 24 15.84 24 24 C16.08 24 8.16 24 0 24 C0 16.08 0 8.16 0 0 Z " fill="#FFFFFF" transform="translate(24,96)"/>
<path d="M0 0 C7.92 0 15.84 0 24 0 C24 7.92 24 15.84 24 24 C16.08 24 8.16 24 0 24 C0 16.08 0 8.16 0 0 Z " fill="#EDEDED" transform="translate(0,96)"/>
<path d="M0 0 C7.92 0 15.84 0 24 0 C24 7.92 24 15.84 24 24 C16.08 24 8.16 24 0 24 C0 16.08 0 8.16 0 0 Z " fill="#FFFFFF" transform="translate(336,72)"/>
<path d="M0 0 C7.92 0 15.84 0 24 0 C24 7.92 24 15.84 24 24 C16.08 24 8.16 24 0 24 C0 16.08 0 8.16 0 0 Z " fill="#EDEDED" transform="translate(312,72)"/>
<path d="M0 0 C7.92 0 15.84 0 24 0 C24 7.92 24 15.84 24 24 C16.08 24 8.16 24 0 24 C0 16.08 0 8.16 0 0 Z " fill="#FFFFFF" transform="translate(288,72)"/>
<path d="M0 0 C7.92 0 15.84 0 24 0 C24 7.92 24 15.84 24 24 C16.08 24 8.16 24 0 24 C0 16.08 0 8.16 0 0 Z " fill="#EDEDED" transform="translate(264,72)"/>
<path d="M0 0 C7.92 0 15.84 0 24 0 C24 7.92 24 15.84 24 24 C16.08 24 8.16 24 0 24 C0 16.08 0 8.16 0 0 Z " fill="#FFFFFF" transform="translate(240,72)"/>
<path d="M0 0 C7.92 0 15.84 0 24 0 C24 7.92 24 15.84 24 24 C16.08 24 8.16 24 0 24 C0 16.08 0 8.16 0 0 Z " fill="#EDEDED" transform="translate(120,72)"/>
<path d="M0 0 C7.92 0 15.84 0 24 0 C24 7.92 24 15.84 24 24 C16.08 24 8.16 24 0 24 C0 16.08 0 8.16 0 0 Z " fill="#FFFFFF" transform="translate(96,72)"/>
<path d="M0 0 C7.92 0 15.84 0 24 0 C24 7.92 24 15.84 24 24 C16.08 24 8.16 24 0 24 C0 16.08 0 8.16 0 0 Z " fill="#EDEDED" transform="translate(72,72)"/>
<path d="M0 0 C7.92 0 15.84 0 24 0 C24 7.92 24 15.84 24 24 C16.08 24 8.16 24 0 24 C0 16.08 0 8.16 0 0 Z " fill="#FFFFFF" transform="translate(48,72)"/>
<path d="M0 0 C7.92 0 15.84 0 24 0 C24 7.92 24 15.84 24 24 C16.08 24 8.16 24 0 24 C0 16.08 0 8.16 0 0 Z " fill="#EDEDED" transform="translate(24,72)"/>
<path d="M0 0 C7.92 0 15.84 0 24 0 C24 7.92 24 15.84 24 24 C16.08 24 8.16 24 0 24 C0 16.08 0 8.16 0 0 Z " fill="#FFFFFF" transform="translate(0,72)"/>
<path d="M0 0 C7.92 0 15.84 0 24 0 C24 7.92 24 15.84 24 24 C16.08 24 8.16 24 0 24 C0 16.08 0 8.16 0 0 Z " fill="#EDEDED" transform="translate(336,48)"/>
<path d="M0 0 C7.92 0 15.84 0 24 0 C24 7.92 24 15.84 24 24 C16.08 24 8.16 24 0 24 C0 16.08 0 8.16 0 0 Z " fill="#FFFFFF" transform="translate(312,48)"/>
<path d="M0 0 C7.92 0 15.84 0 24 0 C24 7.92 24 15.84 24 24 C16.08 24 8.16 24 0 24 C0 16.08 0 8.16 0 0 Z " fill="#EDEDED" transform="translate(288,48)"/>
<path d="M0 0 C7.92 0 15.84 0 24 0 C24 7.92 24 15.84 24 24 C16.08 24 8.16 24 0 24 C0 16.08 0 8.16 0 0 Z " fill="#FFFFFF" transform="translate(264,48)"/>
<path d="M0 0 C7.92 0 15.84 0 24 0 C24 7.92 24 15.84 24 24 C16.08 24 8.16 24 0 24 C0 16.08 0 8.16 0 0 Z " fill="#EDEDED" transform="translate(240,48)"/>
<path d="M0 0 C7.92 0 15.84 0 24 0 C24 7.92 24 15.84 24 24 C16.08 24 8.16 24 0 24 C0 16.08 0 8.16 0 0 Z " fill="#FEFFFF" transform="translate(216,48)"/>
<path d="M0 0 C7.92 0 15.84 0 24 0 C24 7.92 24 15.84 24 24 C16.08 24 8.16 24 0 24 C0 16.08 0 8.16 0 0 Z " fill="#FFFFFF" transform="translate(120,48)"/>
<path d="M0 0 C7.92 0 15.84 0 24 0 C24 7.92 24 15.84 24 24 C16.08 24 8.16 24 0 24 C0 16.08 0 8.16 0 0 Z " fill="#EDEDED" transform="translate(96,48)"/>
<path d="M0 0 C7.92 0 15.84 0 24 0 C24 7.92 24 15.84 24 24 C16.08 24 8.16 24 0 24 C0 16.08 0 8.16 0 0 Z " fill="#FFFFFF" transform="translate(72,48)"/>
<path d="M0 0 C7.92 0 15.84 0 24 0 C24 7.92 24 15.84 24 24 C16.08 24 8.16 24 0 24 C0 16.08 0 8.16 0 0 Z " fill="#EDEDED" transform="translate(48,48)"/>
<path d="M0 0 C7.92 0 15.84 0 24 0 C24 7.92 24 15.84 24 24 C16.08 24 8.16 24 0 24 C0 16.08 0 8.16 0 0 Z " fill="#FFFFFF" transform="translate(24,48)"/>
<path d="M0 0 C7.92 0 15.84 0 24 0 C24 7.92 24 15.84 24 24 C16.08 24 8.16 24 0 24 C0 16.08 0 8.16 0 0 Z " fill="#EDEDED" transform="translate(0,48)"/>
<path d="M0 0 C7.92 0 15.84 0 24 0 C24 7.92 24 15.84 24 24 C16.08 24 8.16 24 0 24 C0 16.08 0 8.16 0 0 Z " fill="#FFFFFF" transform="translate(336,24)"/>
<path d="M0 0 C7.92 0 15.84 0 24 0 C24 7.92 24 15.84 24 24 C16.08 24 8.16 24 0 24 C0 16.08 0 8.16 0 0 Z " fill="#EDEDED" transform="translate(312,24)"/>
<path d="M0 0 C7.92 0 15.84 0 24 0 C24 7.92 24 15.84 24 24 C16.08 24 8.16 24 0 24 C0 16.08 0 8.16 0 0 Z " fill="#FFFFFF" transform="translate(288,24)"/>
<path d="M0 0 C7.92 0 15.84 0 24 0 C24 7.92 24 15.84 24 24 C16.08 24 8.16 24 0 24 C0 16.08 0 8.16 0 0 Z " fill="#EDEDED" transform="translate(264,24)"/>
<path d="M0 0 C7.92 0 15.84 0 24 0 C24 7.92 24 15.84 24 24 C16.08 24 8.16 24 0 24 C0 16.08 0 8.16 0 0 Z " fill="#FFFFFF" transform="translate(240,24)"/>
<path d="M0 0 C7.92 0 15.84 0 24 0 C24 7.92 24 15.84 24 24 C16.08 24 8.16 24 0 24 C0 16.08 0 8.16 0 0 Z " fill="#EDEDED" transform="translate(216,24)"/>
<path d="M0 0 C7.92 0 15.84 0 24 0 C24 7.92 24 15.84 24 24 C16.08 24 8.16 24 0 24 C0 16.08 0 8.16 0 0 Z " fill="#FFFFFF" transform="translate(192,24)"/>
<path d="M0 0 C7.92 0 15.84 0 24 0 C24 7.92 24 15.84 24 24 C16.08 24 8.16 24 0 24 C0 16.08 0 8.16 0 0 Z " fill="#FFFFFF" transform="translate(144,24)"/>
<path d="M0 0 C7.92 0 15.84 0 24 0 C24 7.92 24 15.84 24 24 C16.08 24 8.16 24 0 24 C0 16.08 0 8.16 0 0 Z " fill="#EDEDED" transform="translate(120,24)"/>
<path d="M0 0 C7.92 0 15.84 0 24 0 C24 7.92 24 15.84 24 24 C16.08 24 8.16 24 0 24 C0 16.08 0 8.16 0 0 Z " fill="#FFFFFF" transform="translate(96,24)"/>
<path d="M0 0 C7.92 0 15.84 0 24 0 C24 7.92 24 15.84 24 24 C16.08 24 8.16 24 0 24 C0 16.08 0 8.16 0 0 Z " fill="#EDEDED" transform="translate(72,24)"/>
<path d="M0 0 C7.92 0 15.84 0 24 0 C24 7.92 24 15.84 24 24 C16.08 24 8.16 24 0 24 C0 16.08 0 8.16 0 0 Z " fill="#FFFFFF" transform="translate(48,24)"/>
<path d="M0 0 C7.92 0 15.84 0 24 0 C24 7.92 24 15.84 24 24 C16.08 24 8.16 24 0 24 C0 16.08 0 8.16 0 0 Z " fill="#EDEDED" transform="translate(24,24)"/>
<path d="M0 0 C7.92 0 15.84 0 24 0 C24 7.92 24 15.84 24 24 C16.08 24 8.16 24 0 24 C0 16.08 0 8.16 0 0 Z " fill="#FFFFFF" transform="translate(0,24)"/>
<path d="M0 0 C7.92 0 15.84 0 24 0 C24 7.92 24 15.84 24 24 C16.08 24 8.16 24 0 24 C0 16.08 0 8.16 0 0 Z " fill="#EDEDED" transform="translate(336,0)"/>
<path d="M0 0 C7.92 0 15.84 0 24 0 C24 7.92 24 15.84 24 24 C16.08 24 8.16 24 0 24 C0 16.08 0 8.16 0 0 Z " fill="#FFFFFF" transform="translate(312,0)"/>
<path d="M0 0 C7.92 0 15.84 0 24 0 C24 7.92 24 15.84 24 24 C16.08 24 8.16 24 0 24 C0 16.08 0 8.16 0 0 Z " fill="#EDEDED" transform="translate(288,0)"/>
<path d="M0 0 C7.92 0 15.84 0 24 0 C24 7.92 24 15.84 24 24 C16.08 24 8.16 24 0 24 C0 16.08 0 8.16 0 0 Z " fill="#FFFFFF" transform="translate(264,0)"/>
<path d="M0 0 C7.92 0 15.84 0 24 0 C24 7.92 24 15.84 24 24 C16.08 24 8.16 24 0 24 C0 16.08 0 8.16 0 0 Z " fill="#EDEDED" transform="translate(240,0)"/>
<path d="M0 0 C7.92 0 15.84 0 24 0 C24 7.92 24 15.84 24 24 C16.08 24 8.16 24 0 24 C0 16.08 0 8.16 0 0 Z " fill="#FFFFFF" transform="translate(216,0)"/>
<path d="M0 0 C7.92 0 15.84 0 24 0 C24 7.92 24 15.84 24 24 C16.08 24 8.16 24 0 24 C0 16.08 0 8.16 0 0 Z " fill="#EDEDED" transform="translate(192,0)"/>
<path d="M0 0 C7.92 0 15.84 0 24 0 C24 7.92 24 15.84 24 24 C16.08 24 8.16 24 0 24 C0 16.08 0 8.16 0 0 Z " fill="#FFFFFF" transform="translate(168,0)"/>
<path d="M0 0 C7.92 0 15.84 0 24 0 C24 7.92 24 15.84 24 24 C16.08 24 8.16 24 0 24 C0 16.08 0 8.16 0 0 Z " fill="#EDEDED" transform="translate(144,0)"/>
<path d="M0 0 C7.92 0 15.84 0 24 0 C24 7.92 24 15.84 24 24 C16.08 24 8.16 24 0 24 C0 16.08 0 8.16 0 0 Z " fill="#FFFFFF" transform="translate(120,0)"/>
<path d="M0 0 C7.92 0 15.84 0 24 0 C24 7.92 24 15.84 24 24 C16.08 24 8.16 24 0 24 C0 16.08 0 8.16 0 0 Z " fill="#EDEDED" transform="translate(96,0)"/>
<path d="M0 0 C7.92 0 15.84 0 24 0 C24 7.92 24 15.84 24 24 C16.08 24 8.16 24 0 24 C0 16.08 0 8.16 0 0 Z " fill="#FFFFFF" transform="translate(72,0)"/>
<path d="M0 0 C7.92 0 15.84 0 24 0 C24 7.92 24 15.84 24 24 C16.08 24 8.16 24 0 24 C0 16.08 0 8.16 0 0 Z " fill="#EDEDED" transform="translate(48,0)"/>
<path d="M0 0 C7.92 0 15.84 0 24 0 C24 7.92 24 15.84 24 24 C16.08 24 8.16 24 0 24 C0 16.08 0 8.16 0 0 Z " fill="#EDEDED" transform="translate(0,0)"/>
<path d="M0 0 C3.3 0 6.6 0 10 0 C10.8382682 9.22095021 7.19063943 14.55139516 1.42504883 21.55395508 C-6.95463111 31.21588671 -18.30565734 37.00728342 -31 39 C-34.68458957 39.20265243 -38.31576458 39.19240688 -42 39 C-42 38.67 -42 38.34 -42 38 C-37.05 37.505 -37.05 37.505 -32 37 C-31.67 33.7 -31.34 30.4 -31 27 C-29.55625 26.62875 -28.1125 26.2575 -26.625 25.875 C-16.13312158 22.6592689 -8.93628739 17.28167717 -3 8 C-1.72117546 5.33039996 -0.84413316 2.84894941 0 0 Z " fill="#EAE9EA" transform="translate(223,264)"/>
<path d="M0 0 C2.45286296 3.67929445 2.23228878 5.47377907 2.1953125 9.85546875 C2.19031738 11.06614014 2.18532227 12.27681152 2.18017578 13.52416992 C2.16196777 15.06306885 2.14375977 16.60196777 2.125 18.1875 C2.08375 23.075625 2.0425 27.96375 2 33 C-8.23 33 -18.46 33 -29 33 C-29.495 31.515 -29.495 31.515 -30 30 C-30.66 29.34 -31.32 28.68 -32 28 C-31.09121094 27.70609375 -31.09121094 27.70609375 -30.1640625 27.40625 C-22.94347761 24.82905662 -17.69346972 21.0800319 -12 16 C-11.33742187 15.41992188 -10.67484375 14.83984375 -9.9921875 14.2421875 C-5.51139813 10.07175583 -2.6925051 5.4718652 0 0 Z " fill="#FDFDFD" transform="translate(238,279)"/>
<path d="M0 0 C0.33 0 0.66 0 1 0 C1 3.3 1 6.6 1 10 C5.62 10 10.24 10 15 10 C15 9.34 15 8.68 15 8 C12.69 8.33 10.38 8.66 8 9 C8 7.02 8 5.04 8 3 C15.92 3 23.84 3 32 3 C32 6.96 32 10.92 32 15 C29.36 15 26.72 15 24 15 C23.87625 15.928125 23.7525 16.85625 23.625 17.8125 C23 21 23 21 21 24 C22.65 24.33 24.3 24.66 26 25 C23.56085508 27.43914492 22.78553569 27.28662523 19.4296875 27.4140625 C18.53378906 27.45273438 17.63789063 27.49140625 16.71484375 27.53125 C15.77769531 27.5621875 14.84054688 27.593125 13.875 27.625 C12.45767578 27.68300781 12.45767578 27.68300781 11.01171875 27.7421875 C8.67467625 27.83661346 6.33764499 27.92218394 4 28 C3.67 28.66 3.34 29.32 3 30 C2.01 30 1.02 30 0 30 C0 26.37 0 22.74 0 19 C5.28 18.67 10.56 18.34 16 18 C16 16.02 16 14.04 16 12 C10.72 11.67 5.44 11.34 0 11 C0 7.37 0 3.74 0 0 Z " fill="#ECECEC" transform="translate(160,165)"/>
<path d="M0 0 C1.18613892 0.00785522 1.18613892 0.00785522 2.39624023 0.01586914 C3.16524658 0.0183667 3.93425293 0.02086426 4.7265625 0.0234375 C5.70939209 0.0325415 6.69222168 0.04164551 7.70483398 0.05102539 C12.37639648 0.08196289 12.37639648 0.08196289 17.14233398 0.11352539 C17.14233398 8.03352539 17.14233398 15.95352539 17.14233398 24.11352539 C7.76733398 24.42602539 7.76733398 24.42602539 4.81665039 24.50146484 C4.0501416 24.53457764 3.28363281 24.56769043 2.49389648 24.60180664 C1.31561279 24.64108276 1.31561279 24.64108276 0.11352539 24.68115234 C-2.25806757 24.96242136 -2.25806757 24.96242136 -3.85766602 28.11352539 C-3.69266602 26.99977539 -3.52766602 25.88602539 -3.35766602 24.73852539 C-2.67984796 18.88293053 -2.80623584 13.03160201 -2.89477539 7.1472168 C-2.91683396 5.13606926 -2.89146407 3.1245099 -2.85766602 1.11352539 C-1.85766602 0.11352539 -1.85766602 0.11352539 0 0 Z " fill="#ECECEC" transform="translate(246.857666015625,239.886474609375)"/>
<path d="M0 0 C0.74886475 0.00523682 1.49772949 0.01047363 2.26928711 0.01586914 C3.36188843 0.01961548 3.36188843 0.01961548 4.4765625 0.0234375 C5.40718506 0.0325415 6.33780762 0.04164551 7.29663086 0.05102539 C11.72069336 0.08196289 11.72069336 0.08196289 16.23413086 0.11352539 C16.23413086 8.03352539 16.23413086 15.95352539 16.23413086 24.11352539 C13.28475586 24.29915039 10.33538086 24.48477539 7.29663086 24.67602539 C6.3660083 24.73733643 5.43538574 24.79864746 4.4765625 24.86181641 C3.74816162 24.90491943 3.01976074 24.94802246 2.26928711 24.99243164 C1.52042236 25.03956299 0.77155762 25.08669434 0 25.13525391 C-1.76586914 25.11352539 -1.76586914 25.11352539 -2.76586914 24.11352539 C-2.86519068 22.41793813 -2.89666921 20.71826792 -2.89868164 19.01977539 C-2.90061523 17.47483398 -2.90061523 17.47483398 -2.90258789 15.89868164 C-2.8987207 14.81458008 -2.89485352 13.73047852 -2.89086914 12.61352539 C-2.89473633 11.52942383 -2.89860352 10.44532227 -2.90258789 9.32836914 C-2.90129883 8.2984082 -2.90000977 7.26844727 -2.89868164 6.20727539 C-2.89755371 5.25530273 -2.89642578 4.30333008 -2.89526367 3.32250977 C-2.73845052 0.64544301 -2.68687226 0.17273546 0 0 Z " fill="#FEFEFE" transform="translate(223.765869140625,143.886474609375)"/>
<path d="M0 0 C5.94 0 11.88 0 18 0 C18 7.92 18 15.84 18 24 C12.06 24 6.12 24 0 24 C0 16.08 0 8.16 0 0 Z " fill="#EDEDED" transform="translate(192,144)"/>
<path d="M0 0 C5.94 0 11.88 0 18 0 C18 7.92 18 15.84 18 24 C12.06 24 6.12 24 0 24 C0 16.08 0 8.16 0 0 Z " fill="#EDEDED" transform="translate(192,96)"/>
<path d="M0 0 C5.61 0 11.22 0 17 0 C17 7.92 17 15.84 17 24 C11.39 24 5.78 24 0 24 C0 16.08 0 8.16 0 0 Z " fill="#EDEDED" transform="translate(223,168)"/>
<path d="M0 0 C5.61 0 11.22 0 17 0 C17 7.92 17 15.84 17 24 C11.39 24 5.78 24 0 24 C0 16.08 0 8.16 0 0 Z " fill="#EDEDED" transform="translate(223,120)"/>
<path d="M0 0 C7.92 0 15.84 0 24 0 C24 3.96 24 7.92 24 12 C25.65 11.67 27.3 11.34 29 11 C27.96875 12.47265625 27.96875 12.47265625 26 14 C23.44467733 14.27838951 21.05713376 14.41167936 18.5 14.4375 C11.29672102 14.67221175 5.68214509 16.12296531 -1 19 C-0.67 12.73 -0.34 6.46 0 0 Z " fill="#FCFBFC" transform="translate(168,48)"/>
<path d="M0 0 C0.33 0 0.66 0 1 0 C1.226875 1.2375 1.45375 2.475 1.6875 3.75 C3.49339685 11.91523362 7.10844613 19.62652951 11 27 C7.69428083 28.65285959 4.004622 28.1005118 0.375 28.0625 C-2.38875 28.041875 -5.1525 28.02125 -8 28 C-8 20.08 -8 12.16 -8 4 C-5.36 4 -2.72 4 0 4 C0 2.68 0 1.36 0 0 Z " fill="#EDECED" transform="translate(128,260)"/>
<path d="M0 0 C1.84848713 2.26859784 1.99698492 3.97688439 2.375 6.875 C1.89861498 10.84487514 0.46959574 12.89536536 -2 16 C-5.42094242 18.28062828 -6.68187222 18.21925007 -10.6875 18.125 C-12.17830078 18.09792969 -12.17830078 18.09792969 -13.69921875 18.0703125 C-14.45847656 18.04710937 -15.21773437 18.02390625 -16 18 C-16 20.31 -16 22.62 -16 25 C-16.99 25.33 -17.98 25.66 -19 26 C-19.66 25.67 -20.32 25.34 -21 25 C-21 21.37 -21 17.74 -21 14 C-22.98 14 -24.96 14 -27 14 C-26.67 15.32 -26.34 16.64 -26 18 C-26.66 18 -27.32 18 -28 18 C-28 16.02 -28 14.04 -28 12 C-27.05362671 11.96241577 -27.05362671 11.96241577 -26.08813477 11.92407227 C-23.24603175 11.80845863 -20.40428917 11.68557684 -17.5625 11.5625 C-16.56927734 11.52318359 -15.57605469 11.48386719 -14.55273438 11.44335938 C-13.13637695 11.38051758 -13.13637695 11.38051758 -11.69140625 11.31640625 C-10.81685791 11.27974854 -9.94230957 11.24309082 -9.04125977 11.20532227 C-7.0072598 11.21818934 -7.0072598 11.21818934 -6 10 C-5.83333333 7.5 -5.83333333 7.5 -6 5 C-7.54950268 3.45049732 -9.09990594 3.78344807 -11.25390625 3.68359375 C-12.10791016 3.64169922 -12.96191406 3.59980469 -13.84179688 3.55664062 C-14.73962891 3.51732422 -15.63746094 3.47800781 -16.5625 3.4375 C-17.46419922 3.39431641 -18.36589844 3.35113281 -19.29492188 3.30664062 C-21.52978485 3.20021858 -23.76476308 3.09820012 -26 3 C-26 2.01 -26 1.02 -26 0 C-22.79224458 -0.19840395 -19.58379499 -0.38175425 -16.375 -0.5625 C-15.47136719 -0.61857422 -14.56773437 -0.67464844 -13.63671875 -0.73242188 C-8.95544948 -0.98869574 -4.58620012 -1.19064811 0 0 Z " fill="#F7F6F7" transform="translate(189,192)"/>
<path d="M0 0 C1.28385175 3.85155526 0.29190137 5.19606819 -1 9 C-1.4416175 11.66410556 -1.72188897 14.31159334 -2 17 C-2.639375 16.505 -3.27875 16.01 -3.9375 15.5 C-5.70974339 13.90197138 -5.70974339 13.90197138 -7 14 C-7.00423194 14.56506697 -7.00846388 15.13013393 -7.01282406 15.71232414 C-7.11604102 29.44927464 -7.22472787 43.18617244 -7.33933926 56.92303276 C-7.39459764 63.56602159 -7.44802229 70.20901479 -7.49731445 76.85205078 C-7.54491501 83.25814887 -7.59725621 89.66419202 -7.65294075 96.07022476 C-7.67338387 98.51913212 -7.69209365 100.96805456 -7.70907402 103.41698837 C-7.73307474 106.83647893 -7.76313521 110.25586487 -7.79467773 113.67529297 C-7.8004332 114.69668365 -7.80618866 115.71807434 -7.81211853 116.77041626 C-7.82190735 117.69872253 -7.83169617 118.62702881 -7.84178162 119.58346558 C-7.84823417 120.39279982 -7.85468672 121.20213406 -7.8613348 122.03599358 C-8 124 -8 124 -9 126 C-9.66 125.67 -10.32 125.34 -11 125 C-10.91615458 110.05758657 -10.82104146 95.11527663 -10.71247292 80.17302227 C-10.6623273 73.23524371 -10.61588467 66.29747708 -10.578125 59.35961914 C-10.54169614 52.66818276 -10.49499371 45.97689111 -10.44193649 39.28556252 C-10.42335847 36.72863839 -10.40826322 34.17168657 -10.39665604 31.6147213 C-10.37985198 28.0420845 -10.35083083 24.46974534 -10.31884766 20.8972168 C-10.31668747 19.83266769 -10.31452728 18.76811859 -10.31230164 17.67131042 C-10.29555641 16.21368286 -10.29555641 16.21368286 -10.2784729 14.72660828 C-10.27294214 13.88132411 -10.26741138 13.03603994 -10.26171303 12.16514111 C-9.78356986 8.20948238 -6.76725413 4.76725413 -4 2 C-3.01 2 -2.02 2 -1 2 C-0.67 1.34 -0.34 0.68 0 0 Z " fill="#0E0C0D" transform="translate(162,82)"/>
<path d="M0 0 C7.26 0 14.52 0 22 0 C22 0.33 22 0.66 22 1 C15.07 1 8.14 1 1 1 C1 3.31 1 5.62 1 8 C-0.5390625 9.75 -0.5390625 9.75 -2.625 11 C-6.41388554 13.4856164 -9.00659312 16.10906711 -11.7734375 19.6796875 C-12.17820313 20.11539063 -12.58296875 20.55109375 -13 21 C-13.66 21 -14.32 21 -15 21 C-15.268125 21.86625 -15.53625 22.7325 -15.8125 23.625 C-16.97111987 26.91791964 -18.38209839 29.91127875 -20 33 C-20.78375 32.195625 -21.5675 31.39125 -22.375 30.5625 C-24.71982856 28.01309583 -24.71982856 28.01309583 -27 27 C-24.8313165 17.6023715 -16.69118466 9.41231513 -9 4 C-8.34 4.33 -7.68 4.66 -7 5 C-6.67 4.34 -6.34 3.68 -6 3 C-6 3.99 -6 4.98 -6 6 C-3.03 6.495 -3.03 6.495 0 7 C0 4.69 0 2.38 0 0 Z " fill="#1E1D1D" transform="translate(160,203)"/>
<path d="M0 0 C0.33 0 0.66 0 1 0 C1.33 38.94 1.66 77.88 2 118 C2.99 118 3.98 118 5 118 C11.51428571 120.51428571 11.51428571 120.51428571 14 123 C14.99 123 15.98 123 17 123 C19.04296875 125.1875 19.04296875 125.1875 21.1875 128 C22.26064453 129.3921875 22.26064453 129.3921875 23.35546875 130.8125 C23.89816406 131.534375 24.44085938 132.25625 25 133 C24.67 133.66 24.34 134.32 24 135 C22.68 134.34 21.36 133.68 20 133 C19.67 133.66 19.34 134.32 19 135 C16.9375 135.625 16.9375 135.625 15 136 C14.5875 135.41992188 14.175 134.83984375 13.75 134.2421875 C13.1725 133.46101562 12.595 132.67984375 12 131.875 C11.443125 131.10929688 10.88625 130.34359375 10.3125 129.5546875 C8.24208674 127.01303411 8.24208674 127.01303411 6.05609894 125.85246086 C2.71597206 123.86548767 0.39885022 122.3551652 -0.72889709 118.52344131 C-0.98596482 115.39349997 -0.98956755 112.3510927 -0.90820312 109.21142578 C-0.90937134 108.03036758 -0.91053955 106.84930939 -0.91174316 105.63246155 C-0.90713581 102.40659245 -0.86712932 99.18352819 -0.8111515 95.95821619 C-0.76101444 92.58309874 -0.75643195 89.20792139 -0.74694824 85.83248901 C-0.72211936 79.44666182 -0.6565224 73.06193512 -0.57615232 66.67659175 C-0.48661754 59.40467918 -0.44271868 52.13271301 -0.40258884 44.86038613 C-0.31905074 29.90631173 -0.17841082 14.95326611 0 0 Z " fill="#151213" transform="translate(213,91)"/>
<path d="M0 0 C1.24762347 4.21172254 1.18342741 8.51733173 1.1875 12.875 C1.19974609 13.55691406 1.21199219 14.23882812 1.22460938 14.94140625 C1.23808054 19.65631519 0.47921101 23.52144019 -1 28 C-1.33 26.68 -1.66 25.36 -2 24 C-4.64 24 -7.28 24 -10 24 C-10.33 24.66 -10.66 25.32 -11 26 C-11 17.42 -11 8.84 -11 0 C-2 -1 -2 -1 0 0 Z " fill="#F9F8F9" transform="translate(235,240)"/>
<path d="M0 0 C0.33 0 0.66 0 1 0 C1 3.3 1 6.6 1 10 C2.13179687 9.97679688 3.26359375 9.95359375 4.4296875 9.9296875 C5.91145175 9.91093099 7.39322312 9.89273066 8.875 9.875 C9.62136719 9.85824219 10.36773437 9.84148437 11.13671875 9.82421875 C13.09194461 9.8066041 15.04742021 9.89679811 17 10 C17.66 10.66 18.32 11.32 19 12 C18.44444444 16.55555556 18.44444444 16.55555556 17 18 C14.30345146 18.07319621 11.63308542 18.09242537 8.9375 18.0625 C8.17888672 18.05798828 7.42027344 18.05347656 6.63867188 18.04882812 C4.75908129 18.0370068 2.87953101 18.01907078 1 18 C1 21.63 1 25.26 1 29 C2.13179687 28.96519531 3.26359375 28.93039063 4.4296875 28.89453125 C5.91144353 28.86639664 7.39321556 28.83909613 8.875 28.8125 C9.99455078 28.77479492 9.99455078 28.77479492 11.13671875 28.73632812 C13.3046875 28.70703125 13.3046875 28.70703125 17 29 C19 32 19 32 18.6875 34.125 C18 36 18 36 17 37 C14.64686445 37.07271741 12.29166332 37.08370868 9.9375 37.0625 C8.64714844 37.05347656 7.35679687 37.04445312 6.02734375 37.03515625 C5.02832031 37.02355469 4.02929688 37.01195312 3 37 C3.99 35.35 4.98 33.7 6 32 C5.030625 31.690625 4.06125 31.38125 3.0625 31.0625 C0 30 0 30 -1 29 C-1.07244053 26.98035801 -1.08377188 24.95832876 -1.0625 22.9375 C-1.05347656 21.83277344 -1.04445312 20.72804687 -1.03515625 19.58984375 C-1.02355469 18.73519531 -1.01195312 17.88054687 -1 17 C0.32 17 1.64 17 3 17 C3 16.34 3 15.68 3 15 C3.66 14.67 4.32 14.34 5 14 C5 13.34 5 12.68 5 12 C3.35 11.67 1.7 11.34 0 11 C0 7.37 0 3.74 0 0 Z " fill="#0F0D0E" transform="translate(159,108)"/>
<path d="M0 0 C0.99 0.66 1.98 1.32 3 2 C3 2.66 3 3.32 3 4 C3.99 4.33 4.98 4.66 6 5 C4.125 9.75 4.125 9.75 3 12 C5.475 12.495 5.475 12.495 8 13 C5.56085508 15.43914492 4.78553569 15.28662523 1.4296875 15.4140625 C0.53378906 15.45273438 -0.36210937 15.49140625 -1.28515625 15.53125 C-2.22230469 15.5621875 -3.15945312 15.593125 -4.125 15.625 C-5.06988281 15.66367188 -6.01476562 15.70234375 -6.98828125 15.7421875 C-9.32532375 15.83661346 -11.66235501 15.92218394 -14 16 C-14.33 16.66 -14.66 17.32 -15 18 C-15.99 18 -16.98 18 -18 18 C-18 14.37 -18 10.74 -18 7 C-10.08 6.505 -10.08 6.505 -2 6 C-1.34 4.02 -0.68 2.04 0 0 Z " fill="#EDECEC" transform="translate(178,177)"/>
<path d="M0 0 C0.33 0 0.66 0 1 0 C1 23.1 1 46.2 1 70 C0.67 70 0.34 70 0 70 C0 62.41 0 54.82 0 47 C-1.98 47 -3.96 47 -6 47 C-6 39.08 -6 31.16 -6 23 C-4.02 23 -2.04 23 0 23 C0 15.41 0 7.82 0 0 Z " fill="#FFFFFF" transform="translate(150,97)"/>
<path d="M0 0 C0.33 0 0.66 0 1 0 C0.67 8.91 0.34 17.82 0 27 C-2.64 27 -5.28 27 -8 27 C-8 19.08 -8 11.16 -8 3 C-5.36 3 -2.72 3 0 3 C0 2.01 0 1.02 0 0 Z " fill="#FEFEFE" transform="translate(128,237)"/>
<path d="M0 0 C1.97558594 1.15356445 1.97558594 1.15356445 4 3 C4.45410156 5.54370117 4.45410156 5.54370117 4.390625 8.54296875 C4.37773437 9.61611328 4.36484375 10.68925781 4.3515625 11.79492188 C4.31804687 12.91447266 4.28453125 14.03402344 4.25 15.1875 C4.23195312 16.31865234 4.21390625 17.44980469 4.1953125 18.61523438 C4.14812652 21.41100376 4.08230595 24.20507972 4 27 C2.68 27 1.36 27 0 27 C0 27.66 0 28.32 0 29 C-0.66 29 -1.32 29 -2 29 C-3.25942805 24.53142815 -3.2218601 20.23994424 -3.25 15.625 C-3.270625 14.78710938 -3.29125 13.94921875 -3.3125 13.0859375 C-3.34487823 7.93779907 -2.78614873 4.50182978 0 0 Z " fill="#FBFBFB" transform="translate(140,237)"/>
<path d="M0 0 C1.98 0 3.96 0 6 0 C6 7.92 6 15.84 6 24 C4.02 24 2.04 24 0 24 C0 16.08 0 8.16 0 0 Z " fill="#EDEDED" transform="translate(144,144)"/>
<path d="M0 0 C1.98 0 3.96 0 6 0 C6 7.92 6 15.84 6 24 C4.02 24 2.04 24 0 24 C0 16.08 0 8.16 0 0 Z " fill="#EDEDED" transform="translate(144,96)"/>
<path d="M0 0 C3.75 0.1875 3.75 0.1875 7 1 C7 1.33 7 1.66 7 2 C7.92683594 2.04898437 8.85367188 2.09796875 9.80859375 2.1484375 C11.00613281 2.22320312 12.20367187 2.29796875 13.4375 2.375 C15.22994141 2.47941406 15.22994141 2.47941406 17.05859375 2.5859375 C18.51458984 2.79089844 18.51458984 2.79089844 20 3 C20.33 3.66 20.66 4.32 21 5 C11.43790453 9.89870216 3.78594556 10.95527245 -6.6875 7.9375 C-7.450625 7.628125 -8.21375 7.31875 -9 7 C-9 6.67 -9 6.34 -9 6 C-7.88625 5.9071875 -7.88625 5.9071875 -6.75 5.8125 C-3.76217372 5.23655942 -3.76217372 5.23655942 -2.125 2.375 C-1.42375 1.59125 -0.7225 0.8075 0 0 Z " fill="#211E1F" transform="translate(174,301)"/>
<path d="M0 0 C1.32567199 0.68177416 2.65753688 1.35191436 4 2 C4 2.66 4 3.32 4 4 C-4.13777913 6.73977333 -11.44062871 7.36741339 -20 7 C-17.64046906 4.64046906 -16.22104383 4.50858587 -13 4 C-14.65 3.67 -16.3 3.34 -18 3 C-18 2.67 -18 2.34 -18 2 C-14.7 1.67 -11.4 1.34 -8 1 C-12.95 0.67 -17.9 0.34 -23 0 C-23 -0.33 -23 -0.66 -23 -1 C-3.91121495 -2.60747664 -3.91121495 -2.60747664 0 0 Z " fill="#181516" transform="translate(202,304)"/>
<path d="M0 0 C3.47914941 -0.02887814 6.95826831 -0.04675687 10.4375 -0.0625 C11.92733398 -0.07506836 11.92733398 -0.07506836 13.44726562 -0.08789062 C14.39150391 -0.09111328 15.33574219 -0.09433594 16.30859375 -0.09765625 C17.62041626 -0.10551147 17.62041626 -0.10551147 18.95874023 -0.11352539 C21 0 21 0 22 1 C22.125 3.5 22.125 3.5 22 6 C21 7 21 7 18.95874023 7.11352539 C18.08419189 7.10828857 17.20964355 7.10305176 16.30859375 7.09765625 C15.36435547 7.09443359 14.42011719 7.09121094 13.44726562 7.08789062 C12.45404297 7.07951172 11.46082031 7.07113281 10.4375 7.0625 C9.44041016 7.05798828 8.44332031 7.05347656 7.41601562 7.04882812 C4.94395151 7.03700007 2.47200482 7.02051849 0 7 C0 6.67 0 6.34 0 6 C1.65 6 3.3 6 5 6 C5.33 4.68 5.66 3.36 6 2 C3.03 1.505 3.03 1.505 0 1 C0 0.67 0 0.34 0 0 Z " fill="#191617" transform="translate(162,99)"/>
<path d="M0 0 C0.99 0.33 1.98 0.66 3 1 C2.34 3.64 1.68 6.28 1 9 C-0.32 9.33 -1.64 9.66 -3 10 C-3 10.99 -3 11.98 -3 13 C-3 14.33333333 -3 15.66666667 -3 17 C-8.625 18.125 -8.625 18.125 -12 17 C-13.6875 15.4375 -13.6875 15.4375 -15 14 C-13.68 13.67 -12.36 13.34 -11 13 C-10.938125 12.443125 -10.87625 11.88625 -10.8125 11.3125 C-9.10745823 6.45968882 -4.15428662 2.84240664 0 0 Z " fill="#ECECEC" transform="translate(215,279)"/>
<path d="M0 0 C7.26 0 14.52 0 22 0 C22 0.33 22 0.66 22 1 C15.07 1 8.14 1 1 1 C1 3.31 1 5.62 1 8 C-0.64453125 9.92578125 -0.64453125 9.92578125 -2.8125 11.3125 C-3.52019531 11.78300781 -4.22789062 12.25351563 -4.95703125 12.73828125 C-5.63121094 13.15464844 -6.30539063 13.57101563 -7 14 C-7.99 14.66 -8.98 15.32 -10 16 C-10.66 15.67 -11.32 15.34 -12 15 C-12 14.01 -12 13.02 -12 12 C-12.66 11.67 -13.32 11.34 -14 11 C-14 10.67 -14 10.34 -14 10 C-14.66 9.67 -15.32 9.34 -16 9 C-13.69 7.35 -11.38 5.7 -9 4 C-8.34 4.33 -7.68 4.66 -7 5 C-6.67 4.34 -6.34 3.68 -6 3 C-6 3.99 -6 4.98 -6 6 C-3.03 6.495 -3.03 6.495 0 7 C0 4.69 0 2.38 0 0 Z " fill="#4A4748" transform="translate(160,203)"/>
<path d="M0 0 C0.33 1.32 0.66 2.64 1 4 C1.66 4 2.32 4 3 4 C3 6.97 3 9.94 3 13 C4.32 12.67 5.64 12.34 7 12 C7.91457003 17.56157448 8.32086397 21.675665 6 27 C5.855625 26.38125 5.71125 25.7625 5.5625 25.125 C5.06847775 22.96741678 5.06847775 22.96741678 4 21 C3.67 22.32 3.34 23.64 3 25 C1.66666667 25 0.33333333 25 -1 25 C-0.67 16.75 -0.34 8.5 0 0 Z " fill="#161415" transform="translate(236,243)"/>
<path d="M0 0 C0.66 0.66 1.32 1.32 2 2 C2.66 1.67 3.32 1.34 4 1 C3.649375 1.5775 3.29875 2.155 2.9375 2.75 C1.76931908 4.92304158 1.76931908 4.92304158 2.5 7 C3 9 3 9 2.3125 11.1875 C0.68285754 13.43795864 -0.3466452 13.48644746 -3 14 C-3.33 14.66 -3.66 15.32 -4 16 C-4.33 15.67 -4.66 15.34 -5 15 C-5.268125 15.61875 -5.53625 16.2375 -5.8125 16.875 C-7 19 -7 19 -10 21 C-9.51448585 13.55544977 -6.62832429 6.98350324 -1.6875 1.375 C-1.130625 0.92125 -0.57375 0.4675 0 0 Z " fill="#201E1F" transform="translate(162,71)"/>
<path d="M0 0 C1.98 0 3.96 0 6 0 C6.30357074 2.41654328 6.56844304 4.8273428 6.8125 7.25 C6.94688477 8.27287109 6.94688477 8.27287109 7.08398438 9.31640625 C7.26953125 11.328125 7.26953125 11.328125 7 15 C4.51171875 17.484375 4.51171875 17.484375 2 19 C1.34 18.67 0.68 18.34 0 18 C0 12.06 0 6.12 0 0 Z " fill="#EDECEC" transform="translate(144,192)"/>
<path d="M0 0 C0.33 0 0.66 0 1 0 C1 3.3 1 6.6 1 10 C2.13179687 9.97679688 3.26359375 9.95359375 4.4296875 9.9296875 C5.91145175 9.91093099 7.39322312 9.89273066 8.875 9.875 C9.62136719 9.85824219 10.36773437 9.84148437 11.13671875 9.82421875 C13.09194461 9.8066041 15.04742021 9.89679811 17 10 C17.66 10.66 18.32 11.32 19 12 C18.625 14.625 18.625 14.625 18 17 C13.66666667 17 9.33333333 17 5 17 C5 15.35 5 13.7 5 12 C3.35 11.67 1.7 11.34 0 11 C0 7.37 0 3.74 0 0 Z " fill="#171516" transform="translate(159,108)"/>
<path d="M0 0 C1.27310312 0.93441535 2.543388 1.87267111 3.8125 2.8125 C4.52019531 3.33457031 5.22789062 3.85664063 5.95703125 4.39453125 C7.78531393 5.83128877 9.39896688 7.31815763 11 9 C10.01 9 9.02 9 8 9 C8.33 10.98 8.66 12.96 9 15 C2.54972485 14.73672346 -0.47915791 12.49335977 -5 8 C-3.68 7.67 -2.36 7.34 -1 7 C-0.67 4.69 -0.34 2.38 0 0 Z " fill="#211F20" transform="translate(150,287)"/>
<path d="M0 0 C1.77049689 -0.05410687 3.54146849 -0.09284119 5.3125 -0.125 C6.29863281 -0.14820313 7.28476563 -0.17140625 8.30078125 -0.1953125 C11 0 11 0 14 2 C14.1875 5.625 14.1875 5.625 14 9 C12.328125 9.703125 12.328125 9.703125 10 10 C7.421875 8.671875 7.421875 8.671875 4.75 6.75 C3.85796875 6.12609375 2.9659375 5.5021875 2.046875 4.859375 C1.37140625 4.24578125 0.6959375 3.6321875 0 3 C0 2.01 0 1.02 0 0 Z " fill="#EAEAEA" transform="translate(154,288)"/>
<path d="M0 0 C1.98 0 3.96 0 6 0 C6 3.3 6 6.6 6 10 C5.01 9.67 4.02 9.34 3 9 C3.185625 8.360625 3.37125 7.72125 3.5625 7.0625 C3.706875 6.381875 3.85125 5.70125 4 5 C3.67 4.67 3.34 4.34 3 4 C2.67 5.98 2.34 7.96 2 10 C0.845 9.835 -0.31 9.67 -1.5 9.5 C-4.63936011 9.455152 -5.78535081 9.83466211 -8.3125 11.78125 C-10.29587031 13.79295417 -12.18417141 15.83645955 -14 18 C-14 15 -14 15 -12.4609375 13.09765625 C-6.15004187 6.94039666 -6.15004187 6.94039666 -2.5 4.6875 C-1.2625 3.8521875 -1.2625 3.8521875 0 3 C0 2.01 0 1.02 0 0 Z " fill="#E9E9E9" transform="translate(162,206)"/>
<path d="M0 0 C0.33 0 0.66 0 1 0 C1.03867188 1.30710938 1.03867188 1.30710938 1.078125 2.640625 C1.57220097 13.01622027 4.14889562 21.44995192 8 31 C7.01 31.33 6.02 31.66 5 32 C3 30.5625 3 30.5625 1 28 C0.64557555 24.97175582 0.76652765 22.03514061 1 19 C-0.98 19 -2.96 19 -5 19 C-4.67 17.02 -4.34 15.04 -4 13 C-3.34 13 -2.68 13 -2 13 C-0.71553081 10.43106162 -0.67022856 8.23423663 -0.4375 5.375 C-0.35371094 4.37210938 -0.26992187 3.36921875 -0.18359375 2.3359375 C-0.12300781 1.56507813 -0.06242188 0.79421875 0 0 Z " fill="#272425" transform="translate(136,248)"/>
<path d="M0 0 C1.95825873 -0.02694851 3.91662226 -0.04637218 5.875 -0.0625 C6.96554688 -0.07410156 8.05609375 -0.08570313 9.1796875 -0.09765625 C12 0 12 0 14 1 C14 1.66 14 2.32 14 3 C13.01 3.33 12.02 3.66 11 4 C11 4.66 11 5.32 11 6 C13.46326712 7.6446674 13.46326712 7.6446674 16 9 C12.25 10.125 12.25 10.125 10 9 C7.9625237 8.77141886 5.91959697 8.58975722 3.875 8.4375 C2.23144531 8.31181641 2.23144531 8.31181641 0.5546875 8.18359375 C-0.28835937 8.12300781 -1.13140625 8.06242187 -2 8 C0 6 0 6 2.0625 5.0625 C4.34565884 4.09596458 4.34565884 4.09596458 5 1 C3.35 1 1.7 1 0 1 C0 0.67 0 0.34 0 0 Z " fill="#151314" transform="translate(182,62)"/>
<path d="M0 0 C0.66 0 1.32 0 2 0 C2.59732819 2.76264289 3 5.16032769 3 8 C3.33 8 3.66 8 4 8 C4.06058594 8.88042969 4.12117187 9.76085937 4.18359375 10.66796875 C4.26738281 11.82941406 4.35117188 12.99085938 4.4375 14.1875 C4.55931641 15.91033203 4.55931641 15.91033203 4.68359375 17.66796875 C4.95403812 20.51598171 5.37521747 23.21210482 6 26 C4.02 25.34 2.04 24.68 0 24 C0 16.08 0 8.16 0 0 Z " fill="#EBEBEB" transform="translate(144,240)"/>
<path d="M0 0 C0.474375 0.639375 0.94875 1.27875 1.4375 1.9375 C2.83738726 3.88293306 2.83738726 3.88293306 4 5 C4.99 3.68 5.98 2.36 7 1 C6.67 6.61 6.34 12.22 6 18 C5.67 18 5.34 18 5 18 C4.67 16.02 4.34 14.04 4 12 C2.68 13.32 1.36 14.64 0 16 C-0.19504458 13.89651926 -0.38078496 11.79217415 -0.5625 9.6875 C-0.66691406 8.51574219 -0.77132812 7.34398437 -0.87890625 6.13671875 C-1 3 -1 3 0 0 Z " fill="#1B191A" transform="translate(130,241)"/>
<path d="M0 0 C1.32 0.33 2.64 0.66 4 1 C3.67 1.66 3.34 2.32 3 3 C2.6550855 4.33038449 2.32483418 5.66457061 2 7 C1.40206327 9.35188447 0.74118205 11.68925595 0 14 C-0.99 14.495 -0.99 14.495 -2 15 C-2.66 14.67 -3.32 14.34 -4 14 C-4 14.66 -4 15.32 -4 16 C-4.66 16 -5.32 16 -6 16 C-6.185625 15.071875 -6.185625 15.071875 -6.375 14.125 C-6.87197356 11.80879168 -6.87197356 11.80879168 -9 10 C-8.01 9.01 -7.02 8.02 -6 7 C-6 7.66 -6 8.32 -6 9 C-2.72226496 8.24849977 -2.72226496 8.24849977 -1 5 C-0.61500109 3.34450469 -0.27206865 1.6777567 0 0 Z " fill="#262324" transform="translate(233,275)"/>
<path d="M0 0 C4.95 0 9.9 0 15 0 C15 11.88 15 23.76 15 36 C14.67 36 14.34 36 14 36 C14 25.11 14 14.22 14 3 C10.04 2.67 6.08 2.34 2 2 C1.67 2.66 1.34 3.32 1 4 C0.67 2.68 0.34 1.36 0 0 Z " fill="#0A0809" transform="translate(184,180)"/>
<path d="M0 0 C1.11375 0.556875 1.11375 0.556875 2.25 1.125 C1.875 4.0625 1.875 4.0625 1.25 7.125 C0.26 7.62 0.26 7.62 -0.75 8.125 C-0.42 8.785 -0.09 9.445 0.25 10.125 C0.58 10.125 0.91 10.125 1.25 10.125 C0.92 12.435 0.59 14.745 0.25 17.125 C-2.21140365 14.66359635 -3.05326986 12.34043707 -4.375 9.125 C-4.82101563 8.0525 -5.26703125 6.98 -5.7265625 5.875 C-6.75 3.125 -6.75 3.125 -6.75 1.125 C-4.02098495 -0.69434337 -3.21400584 -1.02263822 0 0 Z " fill="#181717" transform="translate(235.75,224.875)"/>
<path d="M0 0 C3.75 0.1875 3.75 0.1875 7 1 C6.67 1.66 6.34 2.32 6 3 C6.66 3.66 7.32 4.32 8 5 C7.01 5 6.02 5 5 5 C5 5.66 5 6.32 5 7 C2.20315672 8.90185343 0.89614391 8.99271185 -2.5625 8.75 C-6 8 -6 8 -9 6 C-7.88625 5.9071875 -7.88625 5.9071875 -6.75 5.8125 C-3.76217372 5.23655942 -3.76217372 5.23655942 -2.125 2.375 C-1.42375 1.59125 -0.7225 0.8075 0 0 Z " fill="#242122" transform="translate(174,301)"/>
<path d="M0 0 C0.66 0 1.32 0 2 0 C2 0.99 2 1.98 2 3 C3.65 3 5.3 3 7 3 C7 4.98 7 6.96 7 9 C10.465 8.505 10.465 8.505 14 8 C14 8.66 14 9.32 14 10 C9.38 10 4.76 10 0 10 C0 6.7 0 3.4 0 0 Z " fill="#FEFEFE" transform="translate(161,165)"/>
<path d="M0 0 C1.9078584 3.1749094 2.1609041 5.10585211 1.625 8.75 C1.45871094 9.94882812 1.45871094 9.94882812 1.2890625 11.171875 C1.14597656 12.07679688 1.14597656 12.07679688 1 13 C0.34 13 -0.32 13 -1 13 C-1 12.34 -1 11.68 -1 11 C-1.66 11 -2.32 11 -3 11 C-3 11.66 -3 12.32 -3 13 C-3.66 13 -4.32 13 -5 13 C-5.144375 12.21625 -5.28875 11.4325 -5.4375 10.625 C-5.87798925 8.03578982 -5.87798925 8.03578982 -7 6 C-6.34 5.34 -5.68 4.68 -5 4 C-2.875 4.375 -2.875 4.375 -1 5 C-0.67 3.35 -0.34 1.7 0 0 Z " fill="#262324" transform="translate(240,262)"/>
<path d="M0 0 C2.29013653 3.4352048 2.17842973 4.985331 2 9 C0.94232422 9.07541016 0.94232422 9.07541016 -0.13671875 9.15234375 C-4.0013014 10.29642893 -6.13611415 12.70030365 -8.8125 15.5625 C-9.31458984 16.08263672 -9.81667969 16.60277344 -10.33398438 17.13867188 C-11.56529127 18.4168857 -12.7839407 19.70727147 -14 21 C-14.99 20.67 -15.98 20.34 -17 20 C-16.48050781 19.56429688 -15.96101562 19.12859375 -15.42578125 18.6796875 C-8.86806946 13.07957133 -4.10981097 7.61076105 0 0 Z " fill="#DADADA" transform="translate(238,279)"/>
<path d="M0 0 C0.9991932 3.10860106 0.83036989 4.88611292 0 8 C0.33 8.66 0.66 9.32 1 10 C3.52733235 10.65555119 3.52733235 10.65555119 6 11 C4.68221547 13.63556905 2.85780102 15.72269553 1 18 C-1.0625 16.5625 -1.0625 16.5625 -3 14 C-3.26555481 9.09181456 -2.13463685 4.41158282 0 0 Z " fill="#2C2A2B" transform="translate(132,230)"/>
<path d="M0 0 C0.99 0.33 1.98 0.66 3 1 C3.33 2.65 3.66 4.3 4 6 C1 8 1 8 -2.1875 7.625 C-3.115625 7.41875 -4.04375 7.2125 -5 7 C-5 6.34 -5 5.68 -5 5 C-5.66 4.67 -6.32 4.34 -7 4 C-6.67 3.34 -6.34 2.68 -6 2 C-4.02 2 -2.04 2 0 2 C0 1.34 0 0.68 0 0 Z " fill="#201D1E" transform="translate(174,137)"/>
<path d="M0 0 C0.66 0 1.32 0 2 0 C2.474375 1.134375 2.94875 2.26875 3.4375 3.4375 C4.63622083 6.75740166 4.63622083 6.75740166 6 8 C6 7.34 6 6.68 6 6 C6.66 6 7.32 6 8 6 C8 6.99 8 7.98 8 9 C8.66 9 9.32 9 10 9 C10.33 8.01 10.66 7.02 11 6 C11.33 7.65 11.66 9.3 12 11 C10.68 11 9.36 11 8 11 C7.34 12.65 6.68 14.3 6 16 C5.67 16 5.34 16 5 16 C4.80664062 15.38511719 4.61328125 14.77023438 4.4140625 14.13671875 C4.15367187 13.32847656 3.89328125 12.52023438 3.625 11.6875 C3.36976563 10.88699219 3.11453125 10.08648437 2.8515625 9.26171875 C2.01168189 6.77275472 2.01168189 6.77275472 0 4 C0 2.68 0 1.36 0 0 Z " fill="#171516" transform="translate(207,77)"/>
<path d="M0 0 C0 0.33 0 0.66 0 1 C-2.64 1 -5.28 1 -8 1 C-8 1.66 -8 2.32 -8 3 C-9.98 3.66 -11.96 4.32 -14 5 C-14 5.66 -14 6.32 -14 7 C-16.64 7 -19.28 7 -22 7 C-16.51945644 0.02476274 -8.28529572 -1.84117683 0 0 Z " fill="#272425" transform="translate(186,63)"/>
<path d="M0 0 C0 2.31 0 4.62 0 7 C-2.31 7 -4.62 7 -7 7 C-7.33 6.01 -7.66 5.02 -8 4 C-8.66 3.34 -9.32 2.68 -10 2 C-8.71211992 1.46987262 -7.41953322 0.9511671 -6.125 0.4375 C-5.40570313 0.14746094 -4.68640625 -0.14257812 -3.9453125 -0.44140625 C-2 -1 -2 -1 0 0 Z " fill="#E5E5E5" transform="translate(216,305)"/>
<path d="M0 0 C0.91457003 5.56157448 1.32086397 9.675665 -1 15 C-1.144375 14.38125 -1.28875 13.7625 -1.4375 13.125 C-1.93152225 10.96741678 -1.93152225 10.96741678 -3 9 C-3.66 9 -4.32 9 -5 9 C-5.33 9.66 -5.66 10.32 -6 11 C-5.67 7.7 -5.34 4.4 -5 1 C-1 0 -1 0 0 0 Z " fill="#211F20" transform="translate(243,255)"/>
<path d="M0 0 C1.32 0.33 2.64 0.66 4 1 C4 2.32 4 3.64 4 5 C4.66 5 5.32 5 6 5 C6 4.34 6 3.68 6 3 C6.66 3 7.32 3 8 3 C6.55922954 6.36179774 4.75249979 8.59156268 2 11 C1.34 11 0.68 11 0 11 C0 10.34 0 9.68 0 9 C0.66 9 1.32 9 2 9 C2 8.34 2 7.68 2 7 C0.68 6.34 -0.64 5.68 -2 5 C-1.34 3.35 -0.68 1.7 0 0 Z " fill="#191818" transform="translate(223,286)"/>
<path d="M0 0 C0.66 0.33 1.32 0.66 2 1 C0.78273716 4.4645173 -0.43854318 6.43854318 -3 9 C-3.71447643 11.10332891 -3.71447643 11.10332891 -4 13 C-4.66 13 -5.32 13 -6 13 C-6 12.34 -6 11.68 -6 11 C-6.66 11 -7.32 11 -8 11 C-8 11.66 -8 12.32 -8 13 C-8.66 12.67 -9.32 12.34 -10 12 C-3.84965831 3.55353075 -3.84965831 3.55353075 0 0 Z " fill="#282627" transform="translate(162,222)"/>
<path d="M0 0 C2.31 1.65 4.62 3.3 7 5 C6.01 5.495 6.01 5.495 5 6 C4.67 6.66 4.34 7.32 4 8 C3.01 8.33 2.02 8.66 1 9 C0.67 9.99 0.34 10.98 0 12 C-1.32 10.35 -2.64 8.7 -4 7 C-3.34 7 -2.68 7 -2 7 C-1.67 6.34 -1.34 5.68 -1 5 C-0.67 5.33 -0.34 5.66 0 6 C0.33 5.34 0.66 4.68 1 4 C0.34 3.67 -0.32 3.34 -1 3 C-0.67 2.01 -0.34 1.02 0 0 Z " fill="#2A2728" transform="translate(206,68)"/>
<path d="M0 0 C0.33 0.99 0.66 1.98 1 3 C1.66 3.33 2.32 3.66 3 4 C3.99 3.67 4.98 3.34 6 3 C6.66 3.33 7.32 3.66 8 4 C5.36 6.31 2.72 8.62 0 11 C-0.66 10.67 -1.32 10.34 -2 10 C-1.67 9.34 -1.34 8.68 -1 8 C-1.66 7.67 -2.32 7.34 -3 7 C-2.67 6.34 -2.34 5.68 -2 5 C-2.66 4.67 -3.32 4.34 -4 4 C-3.67 3.01 -3.34 2.02 -3 1 C-2.01 0.67 -1.02 0.34 0 0 Z " fill="#181617" transform="translate(166,69)"/>
<path d="M0 0 C0.99 0.33 1.98 0.66 3 1 C2.34 3.64 1.68 6.28 1 9 C-1.31 9 -3.62 9 -6 9 C-4.47291037 5.56404834 -2.40072955 2.88087546 0 0 Z " fill="#F9F9F9" transform="translate(215,279)"/>
<path d="M0 0 C6.19240462 0.68804496 12.01955594 2.28048715 18 4 C18 4.33 18 4.66 18 5 C14.37 5 10.74 5 7 5 C7 4.34 7 3.68 7 3 C6.030625 2.87625 5.06125 2.7525 4.0625 2.625 C3.051875 2.41875 2.04125 2.2125 1 2 C0.67 1.34 0.34 0.68 0 0 Z M-1 2 C0.98 2.99 0.98 2.99 3 4 C1.68 4 0.36 4 -1 4 C-1 3.34 -1 2.68 -1 2 Z " fill="#FBFBFB" transform="translate(161,307)"/>
<path d="M0 0 C1.32 0 2.64 0 4 0 C4 3.63 4 7.26 4 11 C1 10 1 10 -0.25 7.75 C-1.07700926 4.71763271 -0.85394079 2.98879276 0 0 Z " fill="#EDECEC" transform="translate(140,264)"/>
<path d="M0 0 C1.875 0.25 1.875 0.25 4 1 C5.25 3.0625 5.25 3.0625 6 5 C5.34 5 4.68 5 4 5 C3.67 5.66 3.34 6.32 3 7 C2.67 6.67 2.34 6.34 2 6 C1.731875 6.61875 1.46375 7.2375 1.1875 7.875 C0 10 0 10 -3 12 C-2.49202991 7.6822542 -1.80317221 3.96697886 0 0 Z " fill="#2B292A" transform="translate(155,80)"/>
<path d="M0 0 C0 1.66666667 0 3.33333333 0 5 C-4.95 5 -9.9 5 -15 5 C-15 4.67 -15 4.34 -15 4 C-12.69 4 -10.38 4 -8 4 C-8 3.34 -8 2.68 -8 2 C-7.34 2 -6.68 2 -6 2 C-6 1.34 -6 0.68 -6 0 C-3.50907189 -1.24546405 -2.58919267 -0.7767578 0 0 Z " fill="#2A2728" transform="translate(176,160)"/>
<path d="M0 0 C1.8272911 2.74093665 2.93698178 5.13825324 4.125 8.1875 C4.47820312 9.08855469 4.83140625 9.98960937 5.1953125 10.91796875 C5.46085938 11.60503906 5.72640625 12.29210937 6 13 C5.01 13.33 4.02 13.66 3 14 C0.9375 12.625 0.9375 12.625 -1 10 C-1.05863115 6.59939315 -0.58718592 3.34440677 0 0 Z " fill="#2C2A2B" transform="translate(138,266)"/>
<path d="M0 0 C0.33 0 0.66 0 1 0 C1 3.3 1 6.6 1 10 C2.69769531 9.83951172 2.69769531 9.83951172 4.4296875 9.67578125 C5.91139121 9.55386892 7.39316612 9.43281984 8.875 9.3125 C9.62136719 9.23966797 10.36773437 9.16683594 11.13671875 9.09179688 C13.3046875 8.92578125 13.3046875 8.92578125 17 9 C19 12 19 12 18.625 14.6875 C18.315625 15.8321875 18.315625 15.8321875 18 17 C17.67 17 17.34 17 17 17 C16.67 15.35 16.34 13.7 16 12 C10.72 11.67 5.44 11.34 0 11 C0 7.37 0 3.74 0 0 Z " fill="#B7B6B7" transform="translate(160,165)"/>
<path d="M0 0 C0.66 0 1.32 0 2 0 C2 0.99 2 1.98 2 3 C2.66 3 3.32 3 4 3 C5.6875 8.0625 5.6875 8.0625 6 10 C5.34 10.66 4.68 11.32 4 12 C3.7525 11.38125 3.505 10.7625 3.25 10.125 C1.79371361 7.64931313 0.62187494 7.04874998 -2 6 C-1.34 4.02 -0.68 2.04 0 0 Z " fill="#292627" transform="translate(135,224)"/>
<path d="M0 0 C2.64590014 -0.02684679 5.29153096 -0.04676357 7.9375 -0.0625 C8.69224609 -0.07087891 9.44699219 -0.07925781 10.22460938 -0.08789062 C12.14994313 -0.09652441 14.07535581 -0.05224333 16 0 C17 1 17 1 17.0625 3.5625 C17.041875 4.366875 17.02125 5.17125 17 6 C14.03 5.505 14.03 5.505 11 5 C11 4.34 11 3.68 11 3 C11.66 3 12.32 3 13 3 C13 2.34 13 1.68 13 1 C8.71 1 4.42 1 0 1 C0 0.67 0 0.34 0 0 Z " fill="#0F0D0E" transform="translate(160,176)"/>
<path d="M0 0 C0 0.99 0 1.98 0 3 C0.9793879 4.02019573 1.97895449 5.02149805 3 6 C3 6.66 3 7.32 3 8 C2.34 8 1.68 8 1 8 C1.33 8.99 1.66 9.98 2 11 C1.01 11.495 1.01 11.495 0 12 C0 11.34 0 10.68 0 10 C-0.66 9.67 -1.32 9.34 -2 9 C-2.72159424 7.35636866 -3.39351421 5.68949614 -4 4 C-2.68 2.68 -1.36 1.36 0 0 Z " fill="#292627" transform="translate(222,287)"/>
<path d="M0 0 C0 2.97 0 5.94 0 9 C-0.66 7.68 -1.32 6.36 -2 5 C-3.32303717 4.6278958 -4.65737935 4.29369827 -6 4 C-6.66 3.01 -7.32 2.02 -8 1 C-5.29120665 -0.35439668 -2.99066732 -0.06501451 0 0 Z " fill="#E6E5E6" transform="translate(240,216)"/>
<path d="M0 0 C1.32 1.65 2.64 3.3 4 5 C-0.455 6.485 -0.455 6.485 -5 8 C-5.33 7.01 -5.66 6.02 -6 5 C-3 3 -3 3 0 3 C0 2.01 0 1.02 0 0 Z " fill="#2A2828" transform="translate(146,282)"/>
<path d="M0 0 C0.66 1.32 1.32 2.64 2 4 C1.34 4 0.68 4 0 4 C0 6.64 0 9.28 0 12 C-0.99 11.67 -1.98 11.34 -3 11 C-3.73046875 8.93359375 -3.73046875 8.93359375 -4.1875 6.4375 C-4.34605469 5.61121094 -4.50460938 4.78492188 -4.66796875 3.93359375 C-4.77753906 3.29550781 -4.88710937 2.65742188 -5 2 C-4.01 2.99 -3.02 3.98 -2 5 C-1.67 4.01 -1.34 3.02 -1 2 C-0.67 1.34 -0.34 0.68 0 0 Z " fill="#292728" transform="translate(238,226)"/>
<path d="M0 0 C0.66 0.33 1.32 0.66 2 1 C1.67 2.32 1.34 3.64 1 5 C0.34 5 -0.32 5 -1 5 C-2.63676257 6.9600281 -2.63676257 6.9600281 -4 9 C-4.66 8.67 -5.32 8.34 -6 8 C-5.65120368 4.74456771 -4.97866739 3.98126893 -2.4375 1.75 C-1.633125 1.1725 -0.82875 0.595 0 0 Z " fill="#171617" transform="translate(146,212)"/>
<path d="M0 0 C-1.15628906 0.39832031 -1.15628906 0.39832031 -2.3359375 0.8046875 C-3.33882812 1.15789062 -4.34171875 1.51109375 -5.375 1.875 C-6.87160156 2.39707031 -6.87160156 2.39707031 -8.3984375 2.9296875 C-11.10442118 3.84782502 -11.10442118 3.84782502 -13 6 C-13 4.02 -13 2.04 -13 0 C-11.39679026 -0.19551338 -9.79237014 -0.38111983 -8.1875 -0.5625 C-7.29417969 -0.66691406 -6.40085938 -0.77132812 -5.48046875 -0.87890625 C-3 -1 -3 -1 0 0 Z " fill="#131011" transform="translate(187,210)"/>
<path d="M0 0 C0.33 0.66 0.66 1.32 1 2 C1.99 2.33 2.98 2.66 4 3 C2.125 7.75 2.125 7.75 1 10 C-0.32 9.34 -1.64 8.68 -3 8 C-2.34 7.67 -1.68 7.34 -1 7 C-0.59270772 4.67843403 -0.25561323 2.3431213 0 0 Z " fill="#E4E3E4" transform="translate(180,179)"/>
<path d="M0 0 C1.65 0 3.3 0 5 0 C5 1.98 5 3.96 5 6 C3.35 6 1.7 6 0 6 C0 4.02 0 2.04 0 0 Z " fill="#EBEBEB" transform="translate(163,148)"/>
<path d="M0 0 C1.65 0 3.3 0 5 0 C5 1.98 5 3.96 5 6 C3.35 6 1.7 6 0 6 C0 4.02 0 2.04 0 0 Z " fill="#EBECEB" transform="translate(163,109)"/>
<path d="M0 0 C2.97 0.33 5.94 0.66 9 1 C9 1.99 9 2.98 9 4 C2.6 5.23076923 2.6 5.23076923 -0.4375 4.0625 C-0.953125 3.711875 -1.46875 3.36125 -2 3 C-1.01 2.67 -0.02 2.34 1 2 C0.67 1.34 0.34 0.68 0 0 Z " fill="#252122" transform="translate(161,301)"/>
<path d="M0 0 C0.66 0.33 1.32 0.66 2 1 C2 1.66 2 2.32 2 3 C2.33 3.66 2.66 4.32 3 5 C0.01758453 5.77321882 -2.97580475 6.41196203 -6 7 C-6.33 6.01 -6.66 5.02 -7 4 C-1.7265625 0.77734375 -1.7265625 0.77734375 0 0 Z " fill="#2C2829" transform="translate(213,294)"/>
<path d="M0 0 C2 3 2 3 3 5 C3.66 4.67 4.32 4.34 5 4 C5 4.66 5 5.32 5 6 C5.66 6 6.32 6 7 6 C6.67 6.99 6.34 7.98 6 9 C5.01 9.33 4.02 9.66 3 10 C-1.06153846 4.58461538 -1.06153846 4.58461538 -0.75 1.625 C-0.5025 1.08875 -0.255 0.5525 0 0 Z " fill="#F4F3F4" transform="translate(215,72)"/>
<path d="M0 0 C1.32 1.32 2.64 2.64 4 4 C3.67 4.66 3.34 5.32 3 6 C1.68 5.34 0.36 4.68 -1 4 C-1.33 4.66 -1.66 5.32 -2 6 C-4.0625 6.625 -4.0625 6.625 -6 7 C-5 4 -5 4 -3 2 C-2.01 2 -1.02 2 0 2 C0 1.34 0 0.68 0 0 Z " fill="#2E2C2D" transform="translate(234,220)"/>
<path d="M0 0 C2.0625 1.75 2.0625 1.75 4 4 C3.75 6.25 3.75 6.25 3 8 C0.69 8.33 -1.62 8.66 -4 9 C-4.33 8.34 -4.66 7.68 -5 7 C-3.68 7 -2.36 7 -1 7 C-0.67 4.69 -0.34 2.38 0 0 Z " fill="#2D2B2C" transform="translate(150,287)"/>
<path d="M0 0 C0.33 0 0.66 0 1 0 C1.06058594 0.88042969 1.12117187 1.76085937 1.18359375 2.66796875 C1.26738281 3.82941406 1.35117188 4.99085938 1.4375 6.1875 C1.55931641 7.91033203 1.55931641 7.91033203 1.68359375 9.66796875 C1.95403812 12.51598171 2.37521747 15.21210482 3 18 C1.68 17.34 0.36 16.68 -1 16 C-0.67 10.72 -0.34 5.44 0 0 Z " fill="#BBB9BA" transform="translate(147,248)"/>
<path d="M0 0 C1.97909398 -0.02686553 3.95828971 -0.04633375 5.9375 -0.0625 C7.03964844 -0.07410156 8.14179688 -0.08570313 9.27734375 -0.09765625 C12 0 12 0 13 1 C13.125 3.5 13.125 3.5 13 6 C12 7 12 7 9.4375 7.0625 C8.2309375 7.0315625 8.2309375 7.0315625 7 7 C8.32 6.34 9.64 5.68 11 5 C10.67 4.01 10.34 3.02 10 2 C6.7 1.67 3.4 1.34 0 1 C0 0.67 0 0.34 0 0 Z " fill="#0A0708" transform="translate(164,157)"/>
<path d="M0 0 C1.28385175 3.85155526 0.29190137 5.19606819 -1 9 C-1.4416175 11.66410556 -1.72188897 14.31159334 -2 17 C-2.33 17 -2.66 17 -3 17 C-3.08097324 14.72975032 -3.13917704 12.45867925 -3.1875 10.1875 C-3.22230469 8.92292969 -3.25710937 7.65835938 -3.29296875 6.35546875 C-3 3 -3 3 -1.48828125 1.05078125 C-0.75158203 0.53064453 -0.75158203 0.53064453 0 0 Z " fill="#0F0F0F" transform="translate(162,82)"/>
<path d="M0 0 C2.0625 1.625 2.0625 1.625 4 4 C3.75 7.25 3.75 7.25 3 10 C2.34 10 1.68 10 1 10 C1 9.01 1 8.02 1 7 C0.34 6.67 -0.32 6.34 -1 6 C-0.67 5.34 -0.34 4.68 0 4 C0 2.68 0 1.36 0 0 Z " fill="#2A2728" transform="translate(214,76)"/>
<path d="M0 0 C0.99 0.33 1.98 0.66 3 1 C3 2.32 3 3.64 3 5 C3.66 5.33 4.32 5.66 5 6 C4.67 6.99 4.34 7.98 4 9 C3.01 8.67 2.02 8.34 1 8 C1 7.01 1 6.02 1 5 C0.34 4.67 -0.32 4.34 -1 4 C-1 3.67 -1 3.34 -1 3 C-1.66 2.67 -2.32 2.34 -3 2 C-2.01 1.34 -1.02 0.68 0 0 Z " fill="#2B2A2B" transform="translate(147,210)"/>
<path d="M0 0 C0 0.99 0 1.98 0 3 C-6.625 3.25 -6.625 3.25 -10 1 C-8.71073008 0.63720544 -7.41846728 0.28503302 -6.125 -0.0625 C-5.40570313 -0.25972656 -4.68640625 -0.45695312 -3.9453125 -0.66015625 C-2 -1 -2 -1 0 0 Z " fill="#D8D8D8" transform="translate(205,309)"/>
<path d="M0 0 C2.44839588 3.67259383 4 6.54648201 4 11 C3.34 11 2.68 11 2 11 C2 10.34 2 9.68 2 9 C1.34 9 0.68 9 0 9 C-1.125 3.375 -1.125 3.375 0 0 Z " fill="#D7D6D6" transform="translate(130,269)"/>
<path d="M0 0 C0.66 0.33 1.32 0.66 2 1 C0.73058503 4.91402949 -0.51167694 6.79072873 -4 9 C-4.8125 7.3125 -4.8125 7.3125 -5 5 C-2.5625 2.25 -2.5625 2.25 0 0 Z " fill="#2F2C2D" transform="translate(162,222)"/>
<path d="M0 0 C0 0.66 0 1.32 0 2 C-1.96147874 3.38938077 -3.96166576 4.7260411 -6 6 C-6.99 5.34 -7.98 4.68 -9 4 C-8.67 3.01 -8.34 2.02 -8 1 C-7.01 1.33 -6.02 1.66 -5 2 C-2 0 -2 0 0 0 Z " fill="#1D1B1C" transform="translate(158,211)"/>
<path d="M0 0 C0.99 0.495 0.99 0.495 2 1 C2.33 0.67 2.66 0.34 3 0 C4.32 1.32 5.64 2.64 7 4 C5.824375 4.4640625 5.824375 4.4640625 4.625 4.9375 C2.07669872 5.92875038 2.07669872 5.92875038 0 7 C0 4.69 0 2.38 0 0 Z " fill="#E4E3E3" transform="translate(144,296)"/>
<path d="M0 0 C0.97608217 2.92824652 1.08226668 4.95613276 1 8 C0.01 8.33 -0.98 8.66 -2 9 C-2.66 7.68 -3.32 6.36 -4 5 C-2.68 3.35 -1.36 1.7 0 0 Z " fill="#DFDEDE" transform="translate(220,272)"/>
<path d="M0 0 C0.33 0 0.66 0 1 0 C1.91457003 5.56157448 2.32086397 9.675665 0 15 C-1.09651823 11.58860997 -0.94215473 8.79344419 -0.5625 5.25 C-0.46066406 4.26515625 -0.35882813 3.2803125 -0.25390625 2.265625 C-0.17011719 1.51796875 -0.08632812 0.7703125 0 0 Z " fill="#161515" transform="translate(242,255)"/>
<path d="M0 0 C0.33 0 0.66 0 1 0 C0.67 5.61 0.34 11.22 0 17 C-0.33 17 -0.66 17 -1 17 C-1.22262606 14.91814549 -1.42757926 12.83439574 -1.625 10.75 C-1.74101562 9.58984375 -1.85703125 8.4296875 -1.9765625 7.234375 C-1.99955595 4.06127909 -1.69705154 2.61682756 0 0 Z " fill="#0D0C0C" transform="translate(136,242)"/>
<path d="M0 0 C3.0916909 2.52956528 3.90931332 5.22454612 5 9 C2.525 8.01 2.525 8.01 0 7 C0 4.69 0 2.38 0 0 Z " fill="#312E2F" transform="translate(218,231)"/>
<path d="M0 0 C0.99 0.33 1.98 0.66 3 1 C3 1.99 3 2.98 3 4 C3.99 4.33 4.98 4.66 6 5 C2.89953913 6.03348696 1.94389782 6.17755913 -1 5 C-1.33 4.01 -1.66 3.02 -2 2 C-1.34 2 -0.68 2 0 2 C0 1.34 0 0.68 0 0 Z " fill="#272526" transform="translate(178,197)"/>
<path d="M0 0 C0.66 0.33 1.32 0.66 2 1 C2 3.31 2 5.62 2 8 C0.02 8.33 -1.96 8.66 -4 9 C-4 8.34 -4 7.68 -4 7 C-3.01 6.34 -2.02 5.68 -1 5 C-0.27034634 2.43717258 -0.27034634 2.43717258 0 0 Z " fill="#F6F6F6" transform="translate(178,177)"/>
<path d="M0 0 C0.66 0.66 1.32 1.32 2 2 C-0.64 2 -3.28 2 -6 2 C-6.33 2.66 -6.66 3.32 -7 4 C-7.66 3.67 -8.32 3.34 -9 3 C-9 2.34 -9 1.68 -9 1 C-3.375 -1.125 -3.375 -1.125 0 0 Z " fill="#F4F4F4" transform="translate(190,178)"/>
<path d="M0 0 C1 2 1 2 0.9375 3.9375 C-0.49252493 7.08355485 -2.92626518 7.69202774 -6 9 C-4.68775452 5.06326356 -3.08089673 2.77280706 0 0 Z " fill="#2F2D2E" transform="translate(162,71)"/>
<path d="M0 0 C2.50298434 2.93828597 3.46930939 5.17902761 4 9 C3.34 9 2.68 9 2 9 C0.61767557 7.37373596 -0.71937515 5.7074998 -2 4 C-1.34 2.68 -0.68 1.36 0 0 Z " fill="#E4E3E4" transform="translate(230,230)"/>
<path d="M0 0 C0.33 1.32 0.66 2.64 1 4 C-1.3125 4.625 -1.3125 4.625 -4 5 C-4.99 4.34 -5.98 3.68 -7 3 C-4.69 2.01 -2.38 1.02 0 0 Z " fill="#171314" transform="translate(174,217)"/>
<path d="M0 0 C4.3890815 0.51035831 7.33708062 1.52214277 11 4 C8 5 8 5 4.375 3.6875 C1 2 1 2 0 0 Z " fill="#141213" transform="translate(158,296)"/>
<path d="M0 0 C0.598125 0.474375 1.19625 0.94875 1.8125 1.4375 C4.00382924 3.16465744 4.00382924 3.16465744 7 4 C7.33 5.65 7.66 7.3 8 9 C6.68 8.34 5.36 7.68 4 7 C4 6.34 4 5.68 4 5 C3.01 4.67 2.02 4.34 1 4 C0.3125 1.9375 0.3125 1.9375 0 0 Z " fill="#151314" transform="translate(138,276)"/>
<path d="M0 0 C1.5625 1.75 1.5625 1.75 3 4 C2.6875 6.25 2.6875 6.25 2 8 C1.34 8 0.68 8 0 8 C-1.125 6.25 -1.125 6.25 -2 4 C-1.125 1.75 -1.125 1.75 0 0 Z " fill="#DFDFDF" transform="translate(141,232)"/>
<path d="M0 0 C0.99 0 1.98 0 3 0 C3.9765625 6.0546875 3.9765625 6.0546875 4 8 C3.34 8.66 2.68 9.32 2 10 C1.34 6.7 0.68 3.4 0 0 Z " fill="#D0CFD0" transform="translate(218,82)"/>
<path d="M0 0 C0.66 0 1.32 0 2 0 C2.33 2.31 2.66 4.62 3 7 C0 7 0 7 -3 6 C-2.01 4.02 -1.02 2.04 0 0 Z " fill="#191516" transform="translate(204,68)"/>
<path d="M0 0 C3.78452355 0.52562827 6.26514133 1.26514133 9 4 C9.75 6.6875 9.75 6.6875 10 9 C9.34 9 8.68 9 8 9 C7.566875 8.2575 7.13375 7.515 6.6875 6.75 C4.83322286 3.72821504 2.84378057 2.07519122 0 0 Z " fill="#1A191A" transform="translate(205,221)"/>
<path d="M0 0 C2.6855594 2.6855594 3.06049974 5.37621328 4 9 C1 8 1 8 -0.25 6.1875 C-1.11637742 3.66056586 -0.88492145 2.47778006 0 0 Z " fill="#151314" transform="translate(136,277)"/>
<path d="M0 0 C4.875 2.75 4.875 2.75 6 5 C3 6 3 6 0 6 C0 4.02 0 2.04 0 0 Z " fill="#E6E5E6" transform="translate(216,214)"/>
<path d="M0 0 C1.98 0.99 1.98 0.99 4 2 C3.67 3.65 3.34 5.3 3 7 C2.01 7 1.02 7 0 7 C0 6.34 0 5.68 0 5 C0.66 5 1.32 5 2 5 C2 4.01 2 3.02 2 2 C1.34 2 0.68 2 0 2 C0 1.34 0 0.68 0 0 Z " fill="#2C2B2C" transform="translate(174,118)"/>
<path d="M0 0 C2.31 0.33 4.62 0.66 7 1 C6.67 1.66 6.34 2.32 6 3 C3.5625 2.625 3.5625 2.625 1 2 C0.67 1.34 0.34 0.68 0 0 Z M-1 2 C0.98 2.99 0.98 2.99 3 4 C1.68 4 0.36 4 -1 4 C-1 3.34 -1 2.68 -1 2 Z " fill="#F5F3F4" transform="translate(161,307)"/>
<path d="M0 0 C1.65 0.33 3.3 0.66 5 1 C4.67 1.99 4.34 2.98 4 4 C2.68 4 1.36 4 0 4 C0 2.66666667 0 1.33333333 0 0 Z " fill="#211F1F" transform="translate(146,289)"/>
<path d="M0 0 C0.6875 1.625 0.6875 1.625 1 4 C-0.4375 7.25 -0.4375 7.25 -2 10 C-3.60920937 6.78158126 -2.0749168 4.28446801 -1 1 C-0.67 0.67 -0.34 0.34 0 0 Z " fill="#110E0E" transform="translate(223,260)"/>
<path d="M0 0 C1.65 0 3.3 0 5 0 C5.33 1.65 5.66 3.3 6 5 C5.01 5 4.02 5 3 5 C2.67 4.01 2.34 3.02 2 2 C1.34 1.34 0.68 0.68 0 0 Z " fill="#131112" transform="translate(178,196)"/>
<path d="M0 0 C0.99 0.33 1.98 0.66 3 1 C3.33 2.65 3.66 4.3 4 6 C3.01 6.66 2.02 7.32 1 8 C1.33 6.35 1.66 4.7 2 3 C1.34 3 0.68 3 0 3 C0 2.01 0 1.02 0 0 Z " fill="#252424" transform="translate(174,137)"/>
<path d="M0 0 C2.64 0 5.28 0 8 0 C8 0.66 8 1.32 8 2 C8.66 2.33 9.32 2.66 10 3 C3.375 2.25 3.375 2.25 0 0 Z " fill="#3E3B3C" transform="translate(165,307)"/>
<path d="M0 0 C3 1 3 1 4.6875 4.0625 C5.120625 5.031875 5.55375 6.00125 6 7 C4.125 6.875 4.125 6.875 2 6 C0.75 2.9375 0.75 2.9375 0 0 Z " fill="#E2E1E2" transform="translate(133,280)"/>
<path d="M0 0 C0.33 0.66 0.66 1.32 1 2 C1.99 2.33 2.98 2.66 4 3 C4 3.66 4 4.32 4 5 C2.68 5.33 1.36 5.66 0 6 C0 5.34 0 4.68 0 4 C-0.66 3.67 -1.32 3.34 -2 3 C-1.34 2.01 -0.68 1.02 0 0 Z " fill="#292929" transform="translate(139,218)"/>
<path d="M0 0 C1.32 0.66 2.64 1.32 4 2 C3.67 2.66 3.34 3.32 3 4 C2.67 3.67 2.34 3.34 2 3 C1.01 4.32 0.02 5.64 -1 7 C-1 3 -1 3 0 0 Z " fill="#F5F5F5" transform="translate(178,121)"/>
</svg>
